<svg xmlns="http://www.w3.org/2000/svg" xmlns:xlink="http://www.w3.org/1999/xlink" version="1.1" width="720pt" height="540pt" viewBox="0 0 720 540">
<defs>
<clipPath id="clip_4">
<path transform="matrix(1,0,0,-1,0,540)" d="M0 0H720V540H0Z"/>
</clipPath>
<clipPath id="clip_5">
<path transform="matrix(1,0,0,-1,0,540)" d="M0 0H720V540H0Z"/>
</clipPath>
<clipPath id="clip_6">
<path transform="matrix(1,0,0,-1,0,540)" d="M0 0H720V540H0Z"/>
</clipPath>
<clipPath id="clip_7">
<path transform="matrix(1,0,0,-1,0,540)" d="M0 0H720V540H0Z"/>
</clipPath>
<clipPath id="clip_8">
<path transform="matrix(1,0,0,-1,0,540)" d="M0 0H720V540H0Z"/>
</clipPath>
<clipPath id="clip_9">
<path transform="matrix(1,0,0,-1,0,540)" d="M0 0H720V540H0Z"/>
</clipPath>
<clipPath id="clip_10">
<path transform="matrix(1,0,0,-1,0,540)" d="M0 0H720V540H0Z"/>
</clipPath>
<clipPath id="clip_11">
<path transform="matrix(1,0,0,-1,0,540)" d="M0 0H720V540H0Z"/>
</clipPath>
<clipPath id="clip_12">
<path transform="matrix(1,0,0,-1,0,540)" d="M0 0H720V540H0Z"/>
</clipPath>
<clipPath id="clip_13">
<path transform="matrix(1,0,0,-1,0,540)" d="M0 0H720V540H0Z"/>
</clipPath>
<clipPath id="clip_14">
<path transform="matrix(1,0,0,-1,0,540)" d="M0 0H720V540H0Z"/>
</clipPath>
<clipPath id="clip_15">
<path transform="matrix(1,0,0,-1,0,540)" d="M0 0H720V540H0Z"/>
</clipPath>
<clipPath id="clip_16">
<path transform="matrix(1,0,0,-1,0,540)" d="M0 0H720V540H0Z"/>
</clipPath>
<clipPath id="clip_17">
<path transform="matrix(1,0,0,-1,0,540)" d="M0 0H720V540H0Z"/>
</clipPath>
<clipPath id="clip_18">
<path transform="matrix(1,0,0,-1,0,540)" d="M0 0H720V540H0Z"/>
</clipPath>
<clipPath id="clip_19">
<path transform="matrix(1,0,0,-1,0,540)" d="M0 0H720V540H0Z"/>
</clipPath>
<clipPath id="clip_20">
<path transform="matrix(1,0,0,-1,0,540)" d="M0 0H720V540H0Z"/>
</clipPath>
<clipPath id="clip_21">
<path transform="matrix(1,0,0,-1,0,540)" d="M0 0H720V540H0Z"/>
</clipPath>
<clipPath id="clip_22">
<path transform="matrix(1,0,0,-1,0,540)" d="M0 0H720V540H0Z"/>
</clipPath>
<clipPath id="clip_23">
<path transform="matrix(1,0,0,-1,0,540)" d="M0 0H720V540H0Z"/>
</clipPath>
<clipPath id="clip_24">
<path transform="matrix(1,0,0,-1,0,540)" d="M0 0H720V540H0Z"/>
</clipPath>
<clipPath id="clip_25">
<path transform="matrix(1,0,0,-1,0,540)" d="M0 0H720V540H0Z"/>
</clipPath>
<clipPath id="clip_26">
<path transform="matrix(1,0,0,-1,0,540)" d="M0 0H720V540H0Z"/>
</clipPath>
<clipPath id="clip_27">
<path transform="matrix(1,0,0,-1,0,540)" d="M0 0H720V540H0Z"/>
</clipPath>
<clipPath id="clip_28">
<path transform="matrix(1,0,0,-1,0,540)" d="M0 0H720V540H0Z"/>
</clipPath>
<clipPath id="clip_29">
<path transform="matrix(1,0,0,-1,0,540)" d="M0 0H720V540H0Z"/>
</clipPath>
<clipPath id="clip_30">
<path transform="matrix(1,0,0,-1,0,540)" d="M0 0H720V540H0Z"/>
</clipPath>
<clipPath id="clip_31">
<path transform="matrix(1,0,0,-1,0,540)" d="M0 0H720V540H0Z"/>
</clipPath>
<clipPath id="clip_32">
<path transform="matrix(1,0,0,-1,0,540)" d="M0 0H720V540H0Z"/>
</clipPath>
<clipPath id="clip_33">
<path transform="matrix(1,0,0,-1,0,540)" d="M0 0H720V540H0Z"/>
</clipPath>
<clipPath id="clip_34">
<path transform="matrix(1,0,0,-1,0,540)" d="M0 0H720V540H0Z"/>
</clipPath>
<clipPath id="clip_35">
<path transform="matrix(1,0,0,-1,0,540)" d="M0 0H720V540H0Z"/>
</clipPath>
<clipPath id="clip_36">
<path transform="matrix(1,0,0,-1,0,540)" d="M0 0H720V540H0Z"/>
</clipPath>
<clipPath id="clip_37">
<path transform="matrix(1,0,0,-1,0,540)" d="M0 0H720V540H0Z"/>
</clipPath>
<clipPath id="clip_38">
<path transform="matrix(1,0,0,-1,0,540)" d="M0 0H720V540H0Z"/>
</clipPath>
<clipPath id="clip_39">
<path transform="matrix(1,0,0,-1,0,540)" d="M0 0H720V540H0Z"/>
</clipPath>
<clipPath id="clip_40">
<path transform="matrix(1,0,0,-1,0,540)" d="M0 0H720V540H0Z"/>
</clipPath>
<clipPath id="clip_41">
<path transform="matrix(1,0,0,-1,0,540)" d="M0 0H720V540H0Z"/>
</clipPath>
<clipPath id="clip_42">
<path transform="matrix(1,0,0,-1,0,540)" d="M0 0H720V540H0Z"/>
</clipPath>
<clipPath id="clip_43">
<path transform="matrix(1,0,0,-1,0,540)" d="M0 0H720V540H0Z"/>
</clipPath>
<clipPath id="clip_44">
<path transform="matrix(1,0,0,-1,0,540)" d="M0 0H720V540H0Z"/>
</clipPath>
<clipPath id="clip_45">
<path transform="matrix(1,0,0,-1,0,540)" d="M0 0H720V540H0Z"/>
</clipPath>
<clipPath id="clip_46">
<path transform="matrix(1,0,0,-1,0,540)" d="M0 0H720V540H0Z"/>
</clipPath>
<clipPath id="clip_47">
<path transform="matrix(1,0,0,-1,0,540)" d="M0 0H720V540H0Z"/>
</clipPath>
<clipPath id="clip_48">
<path transform="matrix(1,0,0,-1,0,540)" d="M0 0H720V540H0Z"/>
</clipPath>
<clipPath id="clip_49">
<path transform="matrix(1,0,0,-1,0,540)" d="M0 0H720V540H0Z"/>
</clipPath>
<clipPath id="clip_50">
<path transform="matrix(1,0,0,-1,0,540)" d="M0 0H720V540H0Z"/>
</clipPath>
<clipPath id="clip_51">
<path transform="matrix(1,0,0,-1,0,540)" d="M0 0H720V540H0Z"/>
</clipPath>
<clipPath id="clip_52">
<path transform="matrix(1,0,0,-1,0,540)" d="M0 0H720V540H0Z"/>
</clipPath>
<clipPath id="clip_53">
<path transform="matrix(1,0,0,-1,0,540)" d="M0 0H720V540H0Z"/>
</clipPath>
</defs>
<g>
<path transform="matrix(1,0,0,-1,521.52,102)" stroke-width=".96" stroke-linecap="butt" stroke-miterlimit="8" stroke-linejoin="miter" fill="none" stroke="#528cc1" d="M0 0H146.086V-2.936"/>
<path transform="matrix(1,0,0,-1,367.44,51.48001)" stroke-width=".96" stroke-linecap="butt" stroke-miterlimit="8" stroke-linejoin="miter" fill="none" stroke="#477ba9" d="M0 0H154.121V-3.061"/>
<path transform="matrix(1,0,0,-1,275.16,115.32001)" stroke-width=".96" stroke-linecap="butt" stroke-miterlimit="8" stroke-linejoin="miter" fill="none" stroke="#528cc1" d="M0 0V-16.865H258.022V-23.79"/>
<path transform="matrix(1,0,0,-1,612.72,324.36)" stroke-width=".96" stroke-linecap="butt" stroke-miterlimit="8" stroke-linejoin="miter" fill="none" stroke="#528cc1" d="M0 0V-13.03H61.571V-19.955"/>
<path transform="matrix(1,0,0,-1,515.88,255.23999)" stroke-width=".96" stroke-linecap="butt" stroke-miterlimit="8" stroke-linejoin="miter" fill="none" stroke="#528cc1" d="M0 0V-14.815H96.908V-21.74"/>
<path transform="matrix(1,0,0,-1,580.92,462.84)" stroke-width=".96" stroke-linecap="butt" stroke-miterlimit="8" stroke-linejoin="miter" fill="none" stroke="#528cc1" d="M0 0V-21.74"/>
<path transform="matrix(1,0,0,-1,521.4,393.6)" stroke-width=".96" stroke-linecap="butt" stroke-miterlimit="8" stroke-linejoin="miter" fill="none" stroke="#528cc1" d="M0 0V-14.815H59.508V-21.74"/>
<path transform="matrix(1,0,0,-1,465.6,462.84)" stroke-width=".96" stroke-linecap="butt" stroke-miterlimit="8" stroke-linejoin="miter" fill="none" stroke="#528cc1" d="M0 0V-21.74"/>
<path transform="matrix(1,0,0,-1,521.3314,393.6)" stroke-width=".96" stroke-linecap="butt" stroke-miterlimit="8" stroke-linejoin="miter" fill="none" stroke="#528cc1" d="M0 0V-14.815H-55.731V-21.74"/>
<path transform="matrix(1,0,0,-1,418.92,324.36)" stroke-width=".96" stroke-linecap="butt" stroke-miterlimit="8" stroke-linejoin="miter" fill="none" stroke="#528cc1" d="M0 0V-14.815H102.453V-21.74"/>
<path transform="matrix(1,0,0,-1,367.68,462.84)" stroke-width=".96" stroke-linecap="butt" stroke-miterlimit="8" stroke-linejoin="miter" fill="none" stroke="#528cc1" d="M0 0V-21.74"/>
<path transform="matrix(1,0,0,-1,316.44,393.6)" stroke-width=".96" stroke-linecap="butt" stroke-miterlimit="8" stroke-linejoin="miter" fill="none" stroke="#528cc1" d="M0 0V-14.815H51.248V-21.74"/>
<path transform="matrix(1,0,0,-1,269.16,462.84)" stroke-width=".96" stroke-linecap="butt" stroke-miterlimit="8" stroke-linejoin="miter" fill="none" stroke="#528cc1" d="M0 0V-21.74"/>
<path transform="matrix(1,0,0,-1,316.4619,393.6)" stroke-width=".96" stroke-linecap="butt" stroke-miterlimit="8" stroke-linejoin="miter" fill="none" stroke="#528cc1" d="M0 0V-14.815H-47.302V-21.74"/>
<path transform="matrix(1,0,0,-1,418.893,324.36)" stroke-width=".96" stroke-linecap="butt" stroke-miterlimit="8" stroke-linejoin="miter" fill="none" stroke="#528cc1" d="M0 0V-14.815H-102.453V-21.74"/>
<path transform="matrix(1,0,0,-1,515.8276,255.23999)" stroke-width=".96" stroke-linecap="butt" stroke-miterlimit="8" stroke-linejoin="miter" fill="none" stroke="#528cc1" d="M0 0V-14.815H-96.908V-21.74"/>
<path transform="matrix(1,0,0,-1,225.84,186.6)" stroke-width=".96" stroke-linecap="butt" stroke-miterlimit="8" stroke-linejoin="miter" fill="none" stroke="#528cc1" d="M0 0V-14.22H290.053V-21.145"/>
<path transform="matrix(1,0,0,-1,170.04,324.36)" stroke-width=".96" stroke-linecap="butt" stroke-miterlimit="8" stroke-linejoin="miter" fill="none" stroke="#528cc1" d="M0 0V-14.415H.007V-21.339"/>
<path transform="matrix(1,0,0,-1,104.16,255.23999)" stroke-width=".96" stroke-linecap="butt" stroke-miterlimit="8" stroke-linejoin="miter" fill="none" stroke="#528cc1" d="M0 0V-14.815H65.88V-21.74"/>
<path transform="matrix(1,0,0,-1,39.6007,324.36)" stroke-width=".96" stroke-linecap="butt" stroke-miterlimit="8" stroke-linejoin="miter" fill="none" stroke="#528cc1" d="M0 0V-14.219H-.001V-21.144"/>
<path transform="matrix(1,0,0,-1,104.1223,255.23999)" stroke-width=".96" stroke-linecap="butt" stroke-miterlimit="8" stroke-linejoin="miter" fill="none" stroke="#528cc1" d="M0 0V-14.816H-64.522V-21.74"/>
<path transform="matrix(1,0,0,-1,225.816,186.6)" stroke-width=".96" stroke-linecap="butt" stroke-miterlimit="8" stroke-linejoin="miter" fill="none" stroke="#528cc1" d="M0 0V-14.22H-121.656V-21.145"/>
<path transform="matrix(1,0,0,-1,275.2131,115.32001)" stroke-width=".96" stroke-linecap="butt" stroke-miterlimit="8" stroke-linejoin="miter" fill="none" stroke="#528cc1" d="M0 0V-16.868H-49.373V-23.793"/>
<path transform="matrix(1,0,0,-1,367.4547,51.48001)" stroke-width=".96" stroke-linecap="butt" stroke-miterlimit="8" stroke-linejoin="miter" fill="none" stroke="#477ba9" d="M0 0V-9.445H-92.295V-16.37"/>
<g clip-path="url(#clip_4)">
<path transform="matrix(1,0,0,-1,306.84,8.711975)" d="M0 0C0 2.624 2.128 4.752 4.752 4.752H116.448C119.072 4.752 121.2 2.624 121.2 0V-38.016C121.2-40.64 119.072-42.768 116.448-42.768H4.752C2.128-42.768 0-40.64 0-38.016Z" fill="#5b9bd5" fill-rule="evenodd"/>
<path transform="matrix(1,0,0,-1,306.84,8.711975)" stroke-width=".96" stroke-linecap="butt" stroke-miterlimit="8" stroke-linejoin="miter" fill="none" stroke="#ffffff" d="M0 0C0 2.624 2.128 4.752 4.752 4.752H116.448C119.072 4.752 121.2 2.624 121.2 0V-38.016C121.2-40.64 119.072-42.768 116.448-42.768H4.752C2.128-42.768 0-40.64 0-38.016Z"/>
</g>
<g clip-path="url(#clip_5)">
<path transform="matrix(1,0,0,-1,315.12,16.632019)" d="M0 0C0 2.624 2.128 4.752 4.752 4.752H116.568C119.192 4.752 121.32 2.624 121.32 0V-38.016C121.32-40.641 119.192-42.768 116.568-42.768H4.752C2.128-42.768 0-40.641 0-38.016Z" fill="#ffffff" fill-opacity=".901962" fill-rule="evenodd"/>
<path transform="matrix(1,0,0,-1,315.12,16.632019)" stroke-width=".96" stroke-linecap="butt" stroke-miterlimit="8" stroke-linejoin="miter" fill="none" stroke="#5b9bd5" d="M0 0C0 2.624 2.128 4.752 4.752 4.752H116.568C119.192 4.752 121.32 2.624 121.32 0V-38.016C121.32-40.641 119.192-42.768 116.568-42.768H4.752C2.128-42.768 0-40.641 0-38.016Z"/>
</g>
<text xml:space="preserve" transform="matrix(1 0 -0 1 0 540)" font-size="11.04" font-family="Calibri"><tspan y="-507.331" x="325.4534 331.45365 336.97364 341.29359 347.05427 352.93418 358.69377 363.0137 365.29899 370.5761 374.41804 376.93736 385.8179 391.09504 394.8155 399.85636 405.13349 408.9754 414.735 420.25498 426.01457">Respons &#x00e4;r m&#x00e4;tv&#x00e4;rden </tspan><tspan y="-495.20909" x="340.6886 346.2086 348.729 351.24833 356.7683 360.60914 363.00483 366.3643 370.20399 375.72398 380.76374 385.8046 391.3246 397.08418 401.4041 406.9241">eller frekvenser</tspan></text>
<g clip-path="url(#clip_6)">
<path transform="matrix(1,0,0,-1,237.84,72.552)" d="M0 0C0 2.624 2.128 4.752 4.752 4.752H69.888C72.512 4.752 74.64 2.624 74.64 0V-38.016C74.64-40.64 72.512-42.768 69.888-42.768H4.752C2.128-42.768 0-40.64 0-38.016Z" fill="#5b9bd5" fill-rule="evenodd"/>
<path transform="matrix(1,0,0,-1,237.84,72.552)" stroke-width=".96" stroke-linecap="butt" stroke-miterlimit="8" stroke-linejoin="miter" fill="none" stroke="#ffffff" d="M0 0C0 2.624 2.128 4.752 4.752 4.752H69.888C72.512 4.752 74.64 2.624 74.64 0V-38.016C74.64-40.64 72.512-42.768 69.888-42.768H4.752C2.128-42.768 0-40.64 0-38.016Z"/>
</g>
<g clip-path="url(#clip_7)">
<path transform="matrix(1,0,0,-1,246.12,80.471988)" d="M0 0C0 2.624 2.128 4.752 4.752 4.752H70.008C72.632 4.752 74.76 2.624 74.76 0V-38.016C74.76-40.641 72.632-42.768 70.008-42.768H4.752C2.128-42.768 0-40.641 0-38.016Z" fill="#ffffff" fill-opacity=".901962" fill-rule="evenodd"/>
<path transform="matrix(1,0,0,-1,246.12,80.471988)" stroke-width=".96" stroke-linecap="butt" stroke-miterlimit="8" stroke-linejoin="miter" fill="none" stroke="#5b9bd5" d="M0 0C0 2.624 2.128 4.752 4.752 4.752H70.008C72.632 4.752 74.76 2.624 74.76 0V-38.016C74.76-40.641 72.632-42.768 70.008-42.768H4.752C2.128-42.768 0-40.641 0-38.016Z"/>
</g>
<text xml:space="preserve" transform="matrix(1 0 -0 1 0 540)" font-size="11.04" font-family="Calibri"><tspan y="-437.452" x="258.5812 268.06126 273.33839 277.05775 282.0986 287.37574 291.21766 296.97724 302.49723">M&#x00e4;tv&#x00e4;rden</tspan></text>
<g clip-path="url(#clip_8)">
<path transform="matrix(1,0,0,-1,188.4,143.832)" d="M0 0C0 2.624 2.128 4.752 4.752 4.752H70.008C72.632 4.752 74.76 2.624 74.76 0V-38.016C74.76-40.641 72.632-42.768 70.008-42.768H4.752C2.128-42.768 0-40.641 0-38.016Z" fill="#5b9bd5" fill-rule="evenodd"/>
<path transform="matrix(1,0,0,-1,188.4,143.832)" stroke-width=".96" stroke-linecap="butt" stroke-miterlimit="8" stroke-linejoin="miter" fill="none" stroke="#ffffff" d="M0 0C0 2.624 2.128 4.752 4.752 4.752H70.008C72.632 4.752 74.76 2.624 74.76 0V-38.016C74.76-40.641 72.632-42.768 70.008-42.768H4.752C2.128-42.768 0-40.641 0-38.016Z"/>
</g>
<g clip-path="url(#clip_9)">
<path transform="matrix(1,0,0,-1,196.68,151.75202)" d="M0 0C0 2.624 2.128 4.752 4.752 4.752H70.008C72.632 4.752 74.76 2.624 74.76 0V-38.016C74.76-40.64 72.632-42.768 70.008-42.768H4.752C2.128-42.768 0-40.64 0-38.016Z" fill="#ffffff" fill-opacity=".901962" fill-rule="evenodd"/>
<path transform="matrix(1,0,0,-1,196.68,151.75202)" stroke-width=".96" stroke-linecap="butt" stroke-miterlimit="8" stroke-linejoin="miter" fill="none" stroke="#5b9bd5" d="M0 0C0 2.624 2.128 4.752 4.752 4.752H70.008C72.632 4.752 74.76 2.624 74.76 0V-38.016C74.76-40.64 72.632-42.768 70.008-42.768H4.752C2.128-42.768 0-40.64 0-38.016Z"/>
</g>
<text xml:space="preserve" transform="matrix(1 0 -0 1 0 540)" font-size="11.04" font-family="Calibri"><tspan y="-378.2776" x="216.8905 221.93027 226.97003 229.48715 232.00428 234.5214 240.28096 245.55808 251.31764">Skillnad </tspan><tspan y="-366.15568" x="218.81147 227.69205 233.21205 235.72917 238.24629 243.5234 249.28298">mellan </tspan><tspan y="-354.03376" x="216.29434 221.45003 225.28975 231.05043 236.81 242.56957 248.08957">grupper</tspan></text>
<g clip-path="url(#clip_10)">
<path transform="matrix(1,0,0,-1,66.72,212.47199)" d="M0 0C0 2.624 2.128 4.752 4.752 4.752H70.008C72.632 4.752 74.76 2.624 74.76 0V-38.016C74.76-40.641 72.632-42.768 70.008-42.768H4.752C2.128-42.768 0-40.641 0-38.016Z" fill="#5b9bd5" fill-rule="evenodd"/>
<path transform="matrix(1,0,0,-1,66.72,212.47199)" stroke-width=".96" stroke-linecap="butt" stroke-miterlimit="8" stroke-linejoin="miter" fill="none" stroke="#ffffff" d="M0 0C0 2.624 2.128 4.752 4.752 4.752H70.008C72.632 4.752 74.76 2.624 74.76 0V-38.016C74.76-40.641 72.632-42.768 70.008-42.768H4.752C2.128-42.768 0-40.641 0-38.016Z"/>
</g>
<g clip-path="url(#clip_11)">
<path transform="matrix(1,0,0,-1,75.12,220.38)" d="M0 0C0 2.618 2.122 4.74 4.74 4.74H69.9C72.518 4.74 74.64 2.618 74.64 0V-37.92C74.64-40.538 72.518-42.66 69.9-42.66H4.74C2.122-42.66 0-40.538 0-37.92Z" fill="#ffffff" fill-opacity=".901962" fill-rule="evenodd"/>
<path transform="matrix(1,0,0,-1,75.12,220.38)" stroke-width=".96" stroke-linecap="butt" stroke-miterlimit="8" stroke-linejoin="miter" fill="none" stroke="#5b9bd5" d="M0 0C0 2.618 2.122 4.74 4.74 4.74H69.9C72.518 4.74 74.64 2.618 74.64 0V-37.92C74.64-40.538 72.518-42.66 69.9-42.66H4.74C2.122-42.66 0-40.538 0-37.92Z"/>
</g>
<text xml:space="preserve" transform="matrix(1 0 -0 1 0 540)" font-size="11.04" font-family="Calibri"><tspan y="-309.6658" x="98.352 105.311618 109.15243 114.911998 120.67156 126.432239">Grupp </tspan><tspan y="-297.54389" x="83.34864 85.988307 91.26543 100.146 103.50217 109.382068 113.22398 118.98355 121.26883 130.1483 135.6683 141.42787">j&#x00e4;mf&#x00f6;rd med </tspan><tspan y="-285.42198" x="91.99296 97.512958 101.23344 104.95392 107.3496 112.389369 117.6698 121.50951 127.27017">ett v&#x00e4;rde</tspan></text>
<g clip-path="url(#clip_12)">
<path transform="matrix(1,0,0,-1,-3.24,281.7)" d="M0 0C0 2.618 2.122 4.74 4.74 4.74H81.06C83.678 4.74 85.8 2.618 85.8 0V-37.92C85.8-40.538 83.678-42.66 81.06-42.66H4.74C2.122-42.66 0-40.538 0-37.92Z" fill="#5b9bd5" fill-rule="evenodd"/>
<path transform="matrix(1,0,0,-1,-3.24,281.7)" stroke-width=".96" stroke-linecap="butt" stroke-miterlimit="8" stroke-linejoin="miter" fill="none" stroke="#ffffff" d="M0 0C0 2.618 2.122 4.74 4.74 4.74H81.06C83.678 4.74 85.8 2.618 85.8 0V-37.92C85.8-40.538 83.678-42.66 81.06-42.66H4.74C2.122-42.66 0-40.538 0-37.92Z"/>
</g>
<g clip-path="url(#clip_13)">
<path transform="matrix(1,0,0,-1,5.04,289.512)" d="M0 0C0 2.624 2.128 4.752 4.752 4.752H81.048C83.672 4.752 85.8 2.624 85.8 0V-38.016C85.8-40.64 83.672-42.768 81.048-42.768H4.752C2.128-42.768 0-40.64 0-38.016Z" fill="#ffffff" fill-opacity=".901962" fill-rule="evenodd"/>
<path transform="matrix(1,0,0,-1,5.04,289.512)" stroke-width=".96" stroke-linecap="butt" stroke-miterlimit="8" stroke-linejoin="miter" fill="none" stroke="#5b9bd5" d="M0 0C0 2.624 2.128 4.752 4.752 4.752H81.048C83.672 4.752 85.8 2.624 85.8 0V-38.016C85.8-40.64 83.672-42.768 81.048-42.768H4.752C2.128-42.768 0-40.64 0-38.016Z"/>
</g>
<text xml:space="preserve" transform="matrix(1 0 -0 1 0 540)" font-size="11.04" font-family="Calibri"><tspan y="-228.3734" x="13.1897 20.269654 26.149559 29.99148 38.870954 44.14807 46.66519 50.02135 55.901258 59.743177 65.50275 71.02274 73.53986 78.816989">Normalf&#x00f6;rdelat</tspan></text>
<g clip-path="url(#clip_14)">
<path transform="matrix(1,0,0,-1,2.28,350.232)" d="M0 0C0 2.624 2.128 4.752 4.752 4.752H70.008C72.632 4.752 74.76 2.624 74.76 0V-38.016C74.76-40.641 72.632-42.768 70.008-42.768H4.752C2.128-42.768 0-40.641 0-38.016Z" fill="#ff0000" fill-rule="evenodd"/>
<path transform="matrix(1,0,0,-1,2.28,350.232)" stroke-width=".96" stroke-linecap="butt" stroke-miterlimit="8" stroke-linejoin="miter" fill="none" stroke="#ffffff" d="M0 0C0 2.624 2.128 4.752 4.752 4.752H70.008C72.632 4.752 74.76 2.624 74.76 0V-38.016C74.76-40.641 72.632-42.768 70.008-42.768H4.752C2.128-42.768 0-40.641 0-38.016Z"/>
</g>
<g clip-path="url(#clip_15)">
<path transform="matrix(1,0,0,-1,10.56,358.15199)" d="M0 0C0 2.624 2.128 4.752 4.752 4.752H70.008C72.632 4.752 74.76 2.624 74.76 0V-38.016C74.76-40.641 72.632-42.768 70.008-42.768H4.752C2.128-42.768 0-40.641 0-38.016Z" fill="#ffffff" fill-opacity=".901962" fill-rule="evenodd"/>
<path transform="matrix(1,0,0,-1,10.56,358.15199)" stroke-width=".96" stroke-linecap="butt" stroke-miterlimit="8" stroke-linejoin="miter" fill="none" stroke="#5b9bd5" d="M0 0C0 2.624 2.128 4.752 4.752 4.752H70.008C72.632 4.752 74.76 2.624 74.76 0V-38.016C74.76-40.641 72.632-42.768 70.008-42.768H4.752C2.128-42.768 0-40.641 0-38.016Z"/>
</g>
<text xml:space="preserve" transform="matrix(1 0 -0 1 0 540)" font-size="11.04" font-family="Calibri"><tspan y="-174.1972" x="16.7889 22.668805 28.428374 33.94506 37.30122 41.62117 46.898294 55.777769 61.53844 64.05556 69.575557 71.85642 75.576908">one-sample t-</tspan><tspan y="-162.07529" x="39.222185 42.942667 48.462667 52.782617">test</tspan></text>
<text xml:space="preserve" transform="matrix(1 0 -0 1 0 540)" font-size="11.04" font-family="Calibri"><tspan y="-145.2724" x="18.820263 22.540743 25.300742 29.021222 34.54122 38.861177 42.581659 45.94554 50.74573 53.50573 62.385206 68.14698 73.66698">t.test(x,mu=)</tspan></text>
<g clip-path="url(#clip_16)">
<path transform="matrix(1,0,0,-1,132.6,281.7)" d="M0 0C0 2.618 2.122 4.74 4.74 4.74H70.02C72.638 4.74 74.76 2.618 74.76 0V-37.92C74.76-40.538 72.638-42.66 70.02-42.66H4.74C2.122-42.66 0-40.538 0-37.92Z" fill="#5b9bd5" fill-rule="evenodd"/>
<path transform="matrix(1,0,0,-1,132.6,281.7)" stroke-width=".96" stroke-linecap="butt" stroke-miterlimit="8" stroke-linejoin="miter" fill="none" stroke="#ffffff" d="M0 0C0 2.618 2.122 4.74 4.74 4.74H70.02C72.638 4.74 74.76 2.618 74.76 0V-37.92C74.76-40.538 72.638-42.66 70.02-42.66H4.74C2.122-42.66 0-40.538 0-37.92Z"/>
</g>
<g clip-path="url(#clip_17)">
<path transform="matrix(1,0,0,-1,141,289.512)" d="M0 0C0 2.624 2.128 4.752 4.752 4.752H69.888C72.512 4.752 74.64 2.624 74.64 0V-38.016C74.64-40.64 72.512-42.768 69.888-42.768H4.752C2.128-42.768 0-40.64 0-38.016Z" fill="#ffffff" fill-opacity=".901962" fill-rule="evenodd"/>
<path transform="matrix(1,0,0,-1,141,289.512)" stroke-width=".96" stroke-linecap="butt" stroke-miterlimit="8" stroke-linejoin="miter" fill="none" stroke="#5b9bd5" d="M0 0C0 2.624 2.128 4.752 4.752 4.752H69.888C72.512 4.752 74.64 2.624 74.64 0V-38.016C74.64-40.64 72.512-42.768 69.888-42.768H4.752C2.128-42.768 0-40.64 0-38.016Z"/>
</g>
<text xml:space="preserve" transform="matrix(1 0 -0 1 0 540)" font-size="11.04" font-family="Calibri"><tspan y="-234.4164" x="167.5943 170.3543 175.03415 180.0739 185.5895">Icke-</tspan><tspan y="-222.29448" x="149.46662 155.22728 160.5044 164.34632 169.62343 178.50402 184.02402 187.7445 191.58643 194.10355 198.4246 203.46437">parametriskt</tspan></text>
<g clip-path="url(#clip_18)">
<path transform="matrix(1,0,0,-1,117.96,350.472)" d="M0 0C0 2.624 2.128 4.752 4.752 4.752H99.288C101.912 4.752 104.04 2.624 104.04 0V-38.016C104.04-40.64 101.912-42.768 99.288-42.768H4.752C2.128-42.768 0-40.64 0-38.016Z" fill="#ff0000" fill-rule="evenodd"/>
<path transform="matrix(1,0,0,-1,117.96,350.472)" stroke-width=".96" stroke-linecap="butt" stroke-miterlimit="8" stroke-linejoin="miter" fill="none" stroke="#ffffff" d="M0 0C0 2.624 2.128 4.752 4.752 4.752H99.288C101.912 4.752 104.04 2.624 104.04 0V-38.016C104.04-40.64 101.912-42.768 99.288-42.768H4.752C2.128-42.768 0-40.64 0-38.016Z"/>
</g>
<g clip-path="url(#clip_19)">
<path transform="matrix(1,0,0,-1,126.36,358.3801)" d="M0 0C0 2.618 2.122 4.74 4.74 4.74H99.3C101.918 4.74 104.04 2.618 104.04 0V-37.92C104.04-40.538 101.918-42.66 99.3-42.66H4.74C2.122-42.66 0-40.538 0-37.92Z" fill="#ffffff" fill-opacity=".901962" fill-rule="evenodd"/>
<path transform="matrix(1,0,0,-1,126.36,358.3801)" stroke-width=".96" stroke-linecap="butt" stroke-miterlimit="8" stroke-linejoin="miter" fill="none" stroke="#5b9bd5" d="M0 0C0 2.618 2.122 4.74 4.74 4.74H99.3C101.918 4.74 104.04 2.618 104.04 0V-37.92C104.04-40.538 101.918-42.66 99.3-42.66H4.74C2.122-42.66 0-40.538 0-37.92Z"/>
</g>
<text xml:space="preserve" transform="matrix(1 0 -0 1 0 540)" font-size="11.04" font-family="Calibri"><tspan y="-174.0026" x="141.676 151.51595 154.03638 156.5557 161.23555 167.11547 171.91565 177.79557 183.55625 185.836 190.15595 192.67638 197.83206 203.59275 209.11275 214.87232">Wilcoxon signed </tspan><tspan y="-161.88068" x="158.47888 162.3208 167.59792 173.35858 178.39835 180.80176 184.52223 190.04224 194.36219">rank test</tspan></text>
<text xml:space="preserve" transform="matrix(1 0 -0 1 0 540)" font-size="11.04" font-family="Calibri"><tspan y="-145.07779" x="137.00608 144.92176 147.44109 149.96154 154.64139 160.5213 165.3237 168.0837 171.80417 177.32418 181.64412 185.3646 188.72847 193.52866 196.28867 205.0489 210.80847 216.32848">wilcox.test(x,mu=)</tspan></text>
<g clip-path="url(#clip_20)">
<path transform="matrix(1,0,0,-1,478.44,212.47199)" d="M0 0C0 2.624 2.128 4.752 4.752 4.752H70.008C72.632 4.752 74.76 2.624 74.76 0V-38.016C74.76-40.641 72.632-42.768 70.008-42.768H4.752C2.128-42.768 0-40.641 0-38.016Z" fill="#5b9bd5" fill-rule="evenodd"/>
<path transform="matrix(1,0,0,-1,478.44,212.47199)" stroke-width=".96" stroke-linecap="butt" stroke-miterlimit="8" stroke-linejoin="miter" fill="none" stroke="#ffffff" d="M0 0C0 2.624 2.128 4.752 4.752 4.752H70.008C72.632 4.752 74.76 2.624 74.76 0V-38.016C74.76-40.641 72.632-42.768 70.008-42.768H4.752C2.128-42.768 0-40.641 0-38.016Z"/>
</g>
<g clip-path="url(#clip_21)">
<path transform="matrix(1,0,0,-1,486.72,220.38)" d="M0 0C0 2.618 2.122 4.74 4.74 4.74H70.02C72.638 4.74 74.76 2.618 74.76 0V-37.92C74.76-40.538 72.638-42.66 70.02-42.66H4.74C2.122-42.66 0-40.538 0-37.92Z" fill="#ffffff" fill-opacity=".901962" fill-rule="evenodd"/>
<path transform="matrix(1,0,0,-1,486.72,220.38)" stroke-width=".96" stroke-linecap="butt" stroke-miterlimit="8" stroke-linejoin="miter" fill="none" stroke="#5b9bd5" d="M0 0C0 2.618 2.122 4.74 4.74 4.74H70.02C72.638 4.74 74.76 2.618 74.76 0V-37.92C74.76-40.538 72.638-42.66 70.02-42.66H4.74C2.122-42.66 0-40.538 0-37.92Z"/>
</g>
<text xml:space="preserve" transform="matrix(1 0 -0 1 0 540)" font-size="11.04" font-family="Calibri"><tspan y="-309.6658" x="505.3809 512.3405 516.18136 521.9409 527.7005 533.4612 538.98117 542.8208">Grupper </tspan><tspan y="-297.54389" x="492.41993 495.0596 500.33674 509.2173 512.5734 518.45339 522.2953 528.0549 533.332 535.61178 544.4924 550.0124 555.772">j&#x00e4;mf&#x00f6;rda med </tspan><tspan y="-285.42198" x="504.0561 509.09587 514.373 518.2149 523.492 529.2516 535.01229 538.8542">varandra</tspan></text>
<g clip-path="url(#clip_22)">
<path transform="matrix(1,0,0,-1,381.6,281.7)" d="M0 0C0 2.618 2.122 4.74 4.74 4.74H70.02C72.638 4.74 74.76 2.618 74.76 0V-37.92C74.76-40.538 72.638-42.66 70.02-42.66H4.74C2.122-42.66 0-40.538 0-37.92Z" fill="#5b9bd5" fill-rule="evenodd"/>
<path transform="matrix(1,0,0,-1,381.6,281.7)" stroke-width=".96" stroke-linecap="butt" stroke-miterlimit="8" stroke-linejoin="miter" fill="none" stroke="#ffffff" d="M0 0C0 2.618 2.122 4.74 4.74 4.74H70.02C72.638 4.74 74.76 2.618 74.76 0V-37.92C74.76-40.538 72.638-42.66 70.02-42.66H4.74C2.122-42.66 0-40.538 0-37.92Z"/>
</g>
<g clip-path="url(#clip_23)">
<path transform="matrix(1,0,0,-1,389.88,289.512)" d="M0 0C0 2.624 2.128 4.752 4.752 4.752H70.008C72.632 4.752 74.76 2.624 74.76 0V-38.016C74.76-40.641 72.632-42.768 70.008-42.768H4.752C2.128-42.768 0-40.641 0-38.016Z" fill="#ffffff" fill-opacity=".901962" fill-rule="evenodd"/>
<path transform="matrix(1,0,0,-1,389.88,289.512)" stroke-width=".96" stroke-linecap="butt" stroke-miterlimit="8" stroke-linejoin="miter" fill="none" stroke="#5b9bd5" d="M0 0C0 2.624 2.128 4.752 4.752 4.752H70.008C72.632 4.752 74.76 2.624 74.76 0V-38.016C74.76-40.641 72.632-42.768 70.008-42.768H4.752C2.128-42.768 0-40.641 0-38.016Z"/>
</g>
<text xml:space="preserve" transform="matrix(1 0 -0 1 0 540)" font-size="11.04" font-family="Calibri"><tspan y="-228.3739" x="400.3132 405.71287 410.75263 416.03306 418.4287 423.58439 427.4241 433.18476 438.9443 444.70387 450.22389">Tv&#x00e5; grupper</tspan></text>
<g clip-path="url(#clip_24)">
<path transform="matrix(1,0,0,-1,279.12,350.832)" d="M0 0C0 2.624 2.128 4.752 4.752 4.752H70.008C72.632 4.752 74.76 2.624 74.76 0V-38.016C74.76-40.641 72.632-42.768 70.008-42.768H4.752C2.128-42.768 0-40.641 0-38.016Z" fill="#5b9bd5" fill-rule="evenodd"/>
<path transform="matrix(1,0,0,-1,279.12,350.832)" stroke-width=".96" stroke-linecap="butt" stroke-miterlimit="8" stroke-linejoin="miter" fill="none" stroke="#ffffff" d="M0 0C0 2.624 2.128 4.752 4.752 4.752H70.008C72.632 4.752 74.76 2.624 74.76 0V-38.016C74.76-40.641 72.632-42.768 70.008-42.768H4.752C2.128-42.768 0-40.641 0-38.016Z"/>
</g>
<g clip-path="url(#clip_25)">
<path transform="matrix(1,0,0,-1,287.4,358.752)" d="M0 0C0 2.624 2.128 4.752 4.752 4.752H70.008C72.632 4.752 74.76 2.624 74.76 0V-38.016C74.76-40.641 72.632-42.768 70.008-42.768H4.752C2.128-42.768 0-40.641 0-38.016Z" fill="#ffffff" fill-opacity=".901962" fill-rule="evenodd"/>
<path transform="matrix(1,0,0,-1,287.4,358.752)" stroke-width=".96" stroke-linecap="butt" stroke-miterlimit="8" stroke-linejoin="miter" fill="none" stroke="#5b9bd5" d="M0 0C0 2.624 2.128 4.752 4.752 4.752H70.008C72.632 4.752 74.76 2.624 74.76 0V-38.016C74.76-40.641 72.632-42.768 70.008-42.768H4.752C2.128-42.768 0-40.641 0-38.016Z"/>
</g>
<text xml:space="preserve" transform="matrix(1 0 -0 1 0 540)" font-size="11.04" font-family="Calibri"><tspan y="-165.2095" x="299.3026 306.62214 312.38279 317.9028 321.74253 327.62245 333.14247 338.902 344.66267 350.18269">Oberoende </tspan><tspan y="-153.08759" x="301.6983 310.57887 315.856 319.57646 325.33604 327.85316 333.61274 338.77284 344.04997">m&#x00e4;tningar</tspan></text>
<g clip-path="url(#clip_26)">
<path transform="matrix(1,0,0,-1,227.88,420.072)" d="M0 0C0 2.624 2.128 4.752 4.752 4.752H77.808C80.432 4.752 82.56 2.624 82.56 0V-38.016C82.56-40.64 80.432-42.768 77.808-42.768H4.752C2.128-42.768 0-40.64 0-38.016Z" fill="#5b9bd5" fill-rule="evenodd"/>
<path transform="matrix(1,0,0,-1,227.88,420.072)" stroke-width=".96" stroke-linecap="butt" stroke-miterlimit="8" stroke-linejoin="miter" fill="none" stroke="#ffffff" d="M0 0C0 2.624 2.128 4.752 4.752 4.752H77.808C80.432 4.752 82.56 2.624 82.56 0V-38.016C82.56-40.64 80.432-42.768 77.808-42.768H4.752C2.128-42.768 0-40.64 0-38.016Z"/>
</g>
<g clip-path="url(#clip_27)">
<path transform="matrix(1,0,0,-1,236.16,427.98)" d="M0 0C0 2.618 2.122 4.74 4.74 4.74H77.94C80.558 4.74 82.68 2.618 82.68 0V-37.92C82.68-40.538 80.558-42.66 77.94-42.66H4.74C2.122-42.66 0-40.538 0-37.92Z" fill="#ffffff" fill-opacity=".901962" fill-rule="evenodd"/>
<path transform="matrix(1,0,0,-1,236.16,427.98)" stroke-width=".96" stroke-linecap="butt" stroke-miterlimit="8" stroke-linejoin="miter" fill="none" stroke="#5b9bd5" d="M0 0C0 2.618 2.122 4.74 4.74 4.74H77.94C80.558 4.74 82.68 2.618 82.68 0V-37.92C82.68-40.538 80.558-42.66 77.94-42.66H4.74C2.122-42.66 0-40.538 0-37.92Z"/>
</g>
<text xml:space="preserve" transform="matrix(1 0 -0 1 0 540)" font-size="11.04" font-family="Calibri"><tspan y="-89.9601" x="242.7732 249.85315 255.73305 259.57499 268.45445 273.73158 276.2487 279.60487 285.48478 289.3267 295.08628 300.60627 303.12339 308.4005">Normalf&#x00f6;rdelat</tspan></text>
<g clip-path="url(#clip_28)">
<path transform="matrix(1,0,0,-1,224.64,489.3)" d="M0 0C0 2.618 2.122 4.74 4.74 4.74H84.42C87.038 4.74 89.16 2.618 89.16 0V-37.92C89.16-40.538 87.038-42.66 84.42-42.66H4.74C2.122-42.66 0-40.538 0-37.92Z" fill="#ff0000" fill-rule="evenodd"/>
<path transform="matrix(1,0,0,-1,224.64,489.3)" stroke-width=".96" stroke-linecap="butt" stroke-miterlimit="8" stroke-linejoin="miter" fill="none" stroke="#ffffff" d="M0 0C0 2.618 2.122 4.74 4.74 4.74H84.42C87.038 4.74 89.16 2.618 89.16 0V-37.92C89.16-40.538 87.038-42.66 84.42-42.66H4.74C2.122-42.66 0-40.538 0-37.92Z"/>
</g>
<g clip-path="url(#clip_29)">
<path transform="matrix(1,0,0,-1,232.92,497.22)" d="M0 0C0 2.618 2.122 4.74 4.74 4.74H84.42C87.038 4.74 89.16 2.618 89.16 0V-37.92C89.16-40.538 87.038-42.66 84.42-42.66H4.74C2.122-42.66 0-40.538 0-37.92Z" fill="#ffffff" fill-opacity=".901962" fill-rule="evenodd"/>
<path transform="matrix(1,0,0,-1,232.92,497.22)" stroke-width=".96" stroke-linecap="butt" stroke-miterlimit="8" stroke-linejoin="miter" fill="none" stroke="#5b9bd5" d="M0 0C0 2.618 2.122 4.74 4.74 4.74H84.42C87.038 4.74 89.16 2.618 89.16 0V-37.92C89.16-40.538 87.038-42.66 84.42-42.66H4.74C2.122-42.66 0-40.538 0-37.92Z"/>
</g>
<text xml:space="preserve" transform="matrix(1 0 -0 1 0 540)" font-size="11.04" font-family="Calibri"><tspan y="-29.1455" x="237.6132 241.33368 249.24936 255.13368 258.48985 262.80979 268.0869 276.96638 282.72706 285.24418 290.76417 292.93464 296.65513 300.0113 303.73179 309.25178 313.57173">two-sample t-test</tspan></text>
<text xml:space="preserve" transform="matrix(1 0 -0 1 0 540)" font-size="11.04" font-family="Calibri"><tspan y="-12.342621" x="262.21034 265.93083 268.69084 272.41133 277.9313 282.25126 285.97175 289.3279">t.test()</tspan></text>
<g clip-path="url(#clip_30)">
<path transform="matrix(1,0,0,-1,330.36,420.072)" d="M0 0C0 2.624 2.128 4.752 4.752 4.752H70.008C72.632 4.752 74.76 2.624 74.76 0V-38.016C74.76-40.641 72.632-42.768 70.008-42.768H4.752C2.128-42.768 0-40.641 0-38.016Z" fill="#5b9bd5" fill-rule="evenodd"/>
<path transform="matrix(1,0,0,-1,330.36,420.072)" stroke-width=".96" stroke-linecap="butt" stroke-miterlimit="8" stroke-linejoin="miter" fill="none" stroke="#ffffff" d="M0 0C0 2.624 2.128 4.752 4.752 4.752H70.008C72.632 4.752 74.76 2.624 74.76 0V-38.016C74.76-40.641 72.632-42.768 70.008-42.768H4.752C2.128-42.768 0-40.641 0-38.016Z"/>
</g>
<g clip-path="url(#clip_31)">
<path transform="matrix(1,0,0,-1,338.64,427.98)" d="M0 0C0 2.618 2.122 4.74 4.74 4.74H70.02C72.638 4.74 74.76 2.618 74.76 0V-37.92C74.76-40.538 72.638-42.66 70.02-42.66H4.74C2.122-42.66 0-40.538 0-37.92Z" fill="#ffffff" fill-opacity=".901962" fill-rule="evenodd"/>
<path transform="matrix(1,0,0,-1,338.64,427.98)" stroke-width=".96" stroke-linecap="butt" stroke-miterlimit="8" stroke-linejoin="miter" fill="none" stroke="#5b9bd5" d="M0 0C0 2.618 2.122 4.74 4.74 4.74H70.02C72.638 4.74 74.76 2.618 74.76 0V-37.92C74.76-40.538 72.638-42.66 70.02-42.66H4.74C2.122-42.66 0-40.538 0-37.92Z"/>
</g>
<text xml:space="preserve" transform="matrix(1 0 -0 1 0 540)" font-size="11.04" font-family="Calibri"><tspan y="-96.0025" x="365.3108 368.0708 372.75065 377.7904 383.306">Icke-</tspan><tspan y="-83.880588" x="347.1831 352.9438 358.22093 362.06285 367.33998 376.22053 381.7405 385.45988 389.3018 391.8189 396.13887 401.17973">parametriskt</tspan></text>
<g clip-path="url(#clip_32)">
<path transform="matrix(1,0,0,-1,330.36,489.3)" d="M0 0C0 2.618 2.122 4.74 4.74 4.74H70.02C72.638 4.74 74.76 2.618 74.76 0V-37.92C74.76-40.538 72.638-42.66 70.02-42.66H4.74C2.122-42.66 0-40.538 0-37.92Z" fill="#ff0000" fill-rule="evenodd"/>
<path transform="matrix(1,0,0,-1,330.36,489.3)" stroke-width=".96" stroke-linecap="butt" stroke-miterlimit="8" stroke-linejoin="miter" fill="none" stroke="#ffffff" d="M0 0C0 2.618 2.122 4.74 4.74 4.74H70.02C72.638 4.74 74.76 2.618 74.76 0V-37.92C74.76-40.538 72.638-42.66 70.02-42.66H4.74C2.122-42.66 0-40.538 0-37.92Z"/>
</g>
<g clip-path="url(#clip_33)">
<path transform="matrix(1,0,0,-1,338.64,497.22)" d="M0 0C0 2.618 2.122 4.74 4.74 4.74H70.02C72.638 4.74 74.76 2.618 74.76 0V-37.92C74.76-40.538 72.638-42.66 70.02-42.66H4.74C2.122-42.66 0-40.538 0-37.92Z" fill="#ffffff" fill-opacity=".901962" fill-rule="evenodd"/>
<path transform="matrix(1,0,0,-1,338.64,497.22)" stroke-width=".96" stroke-linecap="butt" stroke-miterlimit="8" stroke-linejoin="miter" fill="none" stroke="#5b9bd5" d="M0 0C0 2.618 2.122 4.74 4.74 4.74H70.02C72.638 4.74 74.76 2.618 74.76 0V-37.92C74.76-40.538 72.638-42.66 70.02-42.66H4.74C2.122-42.66 0-40.538 0-37.92Z"/>
</g>
<text xml:space="preserve" transform="matrix(1 0 -0 1 0 540)" font-size="11.04" font-family="Calibri"><tspan y="-35.188" x="349.4682 353.1887 361.10438 366.98869 370.34486 374.6648 379.94194 388.82139 394.58207 397.09919 402.61918">two-sample </tspan><tspan y="-23.066079" x="345.26197 355.10194 357.61906 360.13618 364.81715 370.69706 375.49726 381.37718 387.13676 389.42198 393.14247 398.66246 402.9824">Wilcoxon test</tspan></text>
<text xml:space="preserve" transform="matrix(1 0 -0 1 0 540)" font-size="11.04" font-family="Calibri"><tspan y="-6.263199" x="348.49668 356.41236 358.93278 361.4521 366.13194 372.0118 376.8142 379.57423 383.2947 388.8147 393.13465 396.85514 400.2113">wilcox.test()</tspan></text>
<g clip-path="url(#clip_34)">
<path transform="matrix(1,0,0,-1,483.96,350.832)" d="M0 0C0 2.624 2.128 4.752 4.752 4.752H70.008C72.632 4.752 74.76 2.624 74.76 0V-38.016C74.76-40.641 72.632-42.768 70.008-42.768H4.752C2.128-42.768 0-40.641 0-38.016Z" fill="#5b9bd5" fill-rule="evenodd"/>
<path transform="matrix(1,0,0,-1,483.96,350.832)" stroke-width=".96" stroke-linecap="butt" stroke-miterlimit="8" stroke-linejoin="miter" fill="none" stroke="#ffffff" d="M0 0C0 2.624 2.128 4.752 4.752 4.752H70.008C72.632 4.752 74.76 2.624 74.76 0V-38.016C74.76-40.641 72.632-42.768 70.008-42.768H4.752C2.128-42.768 0-40.641 0-38.016Z"/>
</g>
<g clip-path="url(#clip_35)">
<path transform="matrix(1,0,0,-1,492.36,358.752)" d="M0 0C0 2.624 2.128 4.752 4.752 4.752H70.008C72.632 4.752 74.76 2.624 74.76 0V-38.016C74.76-40.641 72.632-42.768 70.008-42.768H4.752C2.128-42.768 0-40.641 0-38.016Z" fill="#ffffff" fill-opacity=".901962" fill-rule="evenodd"/>
<path transform="matrix(1,0,0,-1,492.36,358.752)" stroke-width=".96" stroke-linecap="butt" stroke-miterlimit="8" stroke-linejoin="miter" fill="none" stroke="#5b9bd5" d="M0 0C0 2.624 2.128 4.752 4.752 4.752H70.008C72.632 4.752 74.76 2.624 74.76 0V-38.016C74.76-40.641 72.632-42.768 70.008-42.768H4.752C2.128-42.768 0-40.641 0-38.016Z"/>
</g>
<text xml:space="preserve" transform="matrix(1 0 -0 1 0 540)" font-size="11.04" font-family="Calibri"><tspan y="-165.2095" x="507.8062 513.80648 519.3265 523.1662 529.0461 534.5661 540.3267 546.08627 551.60629">Beroende </tspan><tspan y="-153.08759" x="506.60285 515.48348 520.76058 524.4811 530.24069 532.75778 538.51736 543.6774 548.9545">m&#x00e4;tningar</tspan></text>
<g clip-path="url(#clip_36)">
<path transform="matrix(1,0,0,-1,424.56,420.072)" d="M0 0C0 2.624 2.128 4.752 4.752 4.752H77.448C80.072 4.752 82.2 2.624 82.2 0V-38.016C82.2-40.64 80.072-42.768 77.448-42.768H4.752C2.128-42.768 0-40.64 0-38.016Z" fill="#5b9bd5" fill-rule="evenodd"/>
<path transform="matrix(1,0,0,-1,424.56,420.072)" stroke-width=".96" stroke-linecap="butt" stroke-miterlimit="8" stroke-linejoin="miter" fill="none" stroke="#ffffff" d="M0 0C0 2.624 2.128 4.752 4.752 4.752H77.448C80.072 4.752 82.2 2.624 82.2 0V-38.016C82.2-40.64 80.072-42.768 77.448-42.768H4.752C2.128-42.768 0-40.64 0-38.016Z"/>
</g>
<g clip-path="url(#clip_37)">
<path transform="matrix(1,0,0,-1,432.84,427.98)" d="M0 0C0 2.618 2.122 4.74 4.74 4.74H77.58C80.198 4.74 82.32 2.618 82.32 0V-37.92C82.32-40.538 80.198-42.66 77.58-42.66H4.74C2.122-42.66 0-40.538 0-37.92Z" fill="#ffffff" fill-opacity=".901962" fill-rule="evenodd"/>
<path transform="matrix(1,0,0,-1,432.84,427.98)" stroke-width=".96" stroke-linecap="butt" stroke-miterlimit="8" stroke-linejoin="miter" fill="none" stroke="#5b9bd5" d="M0 0C0 2.618 2.122 4.74 4.74 4.74H77.58C80.198 4.74 82.32 2.618 82.32 0V-37.92C82.32-40.538 80.198-42.66 77.58-42.66H4.74C2.122-42.66 0-40.538 0-37.92Z"/>
</g>
<text xml:space="preserve" transform="matrix(1 0 -0 1 0 540)" font-size="11.04" font-family="Calibri"><tspan y="-89.9601" x="439.2998 446.37974 452.25965 456.10157 464.98103 470.25816 472.77528 476.13145 482.01136 485.85328 491.61286 497.13285 499.64997 504.9271">Normalf&#x00f6;rdelat</tspan></text>
<g clip-path="url(#clip_38)">
<path transform="matrix(1,0,0,-1,421.68,489.3)" d="M0 0C0 2.618 2.122 4.74 4.74 4.74H83.22C85.838 4.74 87.96 2.618 87.96 0V-37.92C87.96-40.538 85.838-42.66 83.22-42.66H4.74C2.122-42.66 0-40.538 0-37.92Z" fill="#ff0000" fill-rule="evenodd"/>
<path transform="matrix(1,0,0,-1,421.68,489.3)" stroke-width=".96" stroke-linecap="butt" stroke-miterlimit="8" stroke-linejoin="miter" fill="none" stroke="#ffffff" d="M0 0C0 2.618 2.122 4.74 4.74 4.74H83.22C85.838 4.74 87.96 2.618 87.96 0V-37.92C87.96-40.538 85.838-42.66 83.22-42.66H4.74C2.122-42.66 0-40.538 0-37.92Z"/>
</g>
<g clip-path="url(#clip_39)">
<path transform="matrix(1,0,0,-1,430.08,497.22)" d="M0 0C0 2.618 2.122 4.74 4.74 4.74H83.1C85.718 4.74 87.84 2.618 87.84 0V-37.92C87.84-40.538 85.718-42.66 83.1-42.66H4.74C2.122-42.66 0-40.538 0-37.92Z" fill="#ffffff" fill-opacity=".901962" fill-rule="evenodd"/>
<path transform="matrix(1,0,0,-1,430.08,497.22)" stroke-width=".96" stroke-linecap="butt" stroke-miterlimit="8" stroke-linejoin="miter" fill="none" stroke="#5b9bd5" d="M0 0C0 2.618 2.122 4.74 4.74 4.74H83.1C85.718 4.74 87.84 2.618 87.84 0V-37.92C87.84-40.538 85.718-42.66 83.1-42.66H4.74C2.122-42.66 0-40.538 0-37.92Z"/>
</g>
<text xml:space="preserve" transform="matrix(1 0 -0 1 0 540)" font-size="11.04" font-family="Calibri"><tspan y="-29.1455" x="448.6298 454.39048 459.6676 463.50953 468.78666 472.5071 474.905 478.6255 481.98167 485.70216 491.22215 495.54209">parat t-test</tspan></text>
<text xml:space="preserve" transform="matrix(1 0 -0 1 0 540)" font-size="11.04" font-family="Calibri"><tspan y="-12.342621" x="438.90357 442.62406 445.38407 449.10456 454.62455 458.9445 462.66499 466.02445 471.78514 477.06227 479.57939 483.4213 488.94129 494.70088 500.22087 505.6205">t.test(paired=T)</tspan></text>
<g clip-path="url(#clip_40)">
<path transform="matrix(1,0,0,-1,543.48,420.072)" d="M0 0C0 2.624 2.128 4.752 4.752 4.752H70.008C72.632 4.752 74.76 2.624 74.76 0V-38.016C74.76-40.641 72.632-42.768 70.008-42.768H4.752C2.128-42.768 0-40.641 0-38.016Z" fill="#5b9bd5" fill-rule="evenodd"/>
<path transform="matrix(1,0,0,-1,543.48,420.072)" stroke-width=".96" stroke-linecap="butt" stroke-miterlimit="8" stroke-linejoin="miter" fill="none" stroke="#ffffff" d="M0 0C0 2.624 2.128 4.752 4.752 4.752H70.008C72.632 4.752 74.76 2.624 74.76 0V-38.016C74.76-40.641 72.632-42.768 70.008-42.768H4.752C2.128-42.768 0-40.641 0-38.016Z"/>
</g>
<g clip-path="url(#clip_41)">
<path transform="matrix(1,0,0,-1,551.88,427.98)" d="M0 0C0 2.618 2.122 4.74 4.74 4.74H69.9C72.518 4.74 74.64 2.618 74.64 0V-37.92C74.64-40.538 72.518-42.66 69.9-42.66H4.74C2.122-42.66 0-40.538 0-37.92Z" fill="#ffffff" fill-opacity=".901962" fill-rule="evenodd"/>
<path transform="matrix(1,0,0,-1,551.88,427.98)" stroke-width=".96" stroke-linecap="butt" stroke-miterlimit="8" stroke-linejoin="miter" fill="none" stroke="#5b9bd5" d="M0 0C0 2.618 2.122 4.74 4.74 4.74H69.9C72.518 4.74 74.64 2.618 74.64 0V-37.92C74.64-40.538 72.518-42.66 69.9-42.66H4.74C2.122-42.66 0-40.538 0-37.92Z"/>
</g>
<text xml:space="preserve" transform="matrix(1 0 -0 1 0 540)" font-size="11.04" font-family="Calibri"><tspan y="-96.0025" x="578.4769 581.23696 585.9168 590.95657 596.4721">Icke-</tspan><tspan y="-83.880588" x="560.34927 566.1099 571.387 575.22897 580.50607 589.38668 594.9067 598.6261 602.468 604.9851 609.30508 614.3459">parametriskt</tspan></text>
<g clip-path="url(#clip_42)">
<path transform="matrix(1,0,0,-1,526.2,489.3)" d="M0 0C0 2.618 2.122 4.74 4.74 4.74H104.7C107.318 4.74 109.44 2.618 109.44 0V-37.92C109.44-40.538 107.318-42.66 104.7-42.66H4.74C2.122-42.66 0-40.538 0-37.92Z" fill="#ff0000" fill-rule="evenodd"/>
<path transform="matrix(1,0,0,-1,526.2,489.3)" stroke-width=".96" stroke-linecap="butt" stroke-miterlimit="8" stroke-linejoin="miter" fill="none" stroke="#ffffff" d="M0 0C0 2.618 2.122 4.74 4.74 4.74H104.7C107.318 4.74 109.44 2.618 109.44 0V-37.92C109.44-40.538 107.318-42.66 104.7-42.66H4.74C2.122-42.66 0-40.538 0-37.92Z"/>
</g>
<g clip-path="url(#clip_43)">
<path transform="matrix(1,0,0,-1,534.48,497.22)" d="M0 0C0 2.618 2.122 4.74 4.74 4.74H104.7C107.318 4.74 109.44 2.618 109.44 0V-37.92C109.44-40.538 107.318-42.66 104.7-42.66H4.74C2.122-42.66 0-40.538 0-37.92Z" fill="#ffffff" fill-opacity=".901962" fill-rule="evenodd"/>
<path transform="matrix(1,0,0,-1,534.48,497.22)" stroke-width=".96" stroke-linecap="butt" stroke-miterlimit="8" stroke-linejoin="miter" fill="none" stroke="#5b9bd5" d="M0 0C0 2.618 2.122 4.74 4.74 4.74H104.7C107.318 4.74 109.44 2.618 109.44 0V-37.92C109.44-40.538 107.318-42.66 104.7-42.66H4.74C2.122-42.66 0-40.538 0-37.92Z"/>
</g>
<text xml:space="preserve" transform="matrix(1 0 -0 1 0 540)" font-size="11.04" font-family="Calibri"><tspan y="-29.1455" x="545.3219 551.0826 556.3597 560.2016 565.4787 569.1992 571.5949 581.4349 583.95199 586.46908 591.15 597.0289 601.8302 607.71017 613.4697 615.7571 619.47756 624.99758 629.31759">parat Wilcoxon test</tspan></text>
<text xml:space="preserve" transform="matrix(1 0 -0 1 0 540)" font-size="11.04" font-family="Calibri"><tspan y="-12.342621" x="541.83328 549.7489 552.26828 554.7887 559.46859 565.34848 570.1509 572.9108 576.6313 582.1513 586.4713 590.1918 593.5513 599.31088 604.58798 607.10507 610.94699 616.467 622.22769 627.7477 633.0281">wilcox.test(paired=T)</tspan></text>
<g clip-path="url(#clip_44)">
<path transform="matrix(1,0,0,-1,575.4,281.7)" d="M0 0C0 2.618 2.122 4.74 4.74 4.74H70.02C72.638 4.74 74.76 2.618 74.76 0V-37.92C74.76-40.538 72.638-42.66 70.02-42.66H4.74C2.122-42.66 0-40.538 0-37.92Z" fill="#5b9bd5" fill-rule="evenodd"/>
<path transform="matrix(1,0,0,-1,575.4,281.7)" stroke-width=".96" stroke-linecap="butt" stroke-miterlimit="8" stroke-linejoin="miter" fill="none" stroke="#ffffff" d="M0 0C0 2.618 2.122 4.74 4.74 4.74H70.02C72.638 4.74 74.76 2.618 74.76 0V-37.92C74.76-40.538 72.638-42.66 70.02-42.66H4.74C2.122-42.66 0-40.538 0-37.92Z"/>
</g>
<g clip-path="url(#clip_45)">
<path transform="matrix(1,0,0,-1,583.68,289.512)" d="M0 0C0 2.624 2.128 4.752 4.752 4.752H70.008C72.632 4.752 74.76 2.624 74.76 0V-38.016C74.76-40.641 72.632-42.768 70.008-42.768H4.752C2.128-42.768 0-40.641 0-38.016Z" fill="#ffffff" fill-opacity=".901962" fill-rule="evenodd"/>
<path transform="matrix(1,0,0,-1,583.68,289.512)" stroke-width=".96" stroke-linecap="butt" stroke-miterlimit="8" stroke-linejoin="miter" fill="none" stroke="#5b9bd5" d="M0 0C0 2.624 2.128 4.752 4.752 4.752H70.008C72.632 4.752 74.76 2.624 74.76 0V-38.016C74.76-40.641 72.632-42.768 70.008-42.768H4.752C2.128-42.768 0-40.641 0-38.016Z"/>
</g>
<text xml:space="preserve" transform="matrix(1 0 -0 1 0 540)" font-size="11.04" font-family="Calibri"><tspan y="-234.4164" x="597.611 602.6508 605.1679 610.6879 614.52987 616.92556 622.20266 627.9622 630.48269 634.2032 639.243 644.5201">Fler &#x00e4;n tv&#x00e5; </tspan><tspan y="-222.29448" x="603.25247 608.40817 612.2478 618.0074 623.76809 629.52767 635.0476">grupper</tspan></text>
<g clip-path="url(#clip_46)">
<path transform="matrix(1,0,0,-1,636.96,349.14)" d="M0 0C0 2.618 2.122 4.74 4.74 4.74H70.02C72.638 4.74 74.76 2.618 74.76 0V-37.92C74.76-40.538 72.638-42.66 70.02-42.66H4.74C2.122-42.66 0-40.538 0-37.92Z" fill="#92d050" fill-rule="evenodd"/>
<path transform="matrix(1,0,0,-1,636.96,349.14)" stroke-width=".96" stroke-linecap="butt" stroke-miterlimit="8" stroke-linejoin="miter" fill="none" stroke="#ffffff" d="M0 0C0 2.618 2.122 4.74 4.74 4.74H70.02C72.638 4.74 74.76 2.618 74.76 0V-37.92C74.76-40.538 72.638-42.66 70.02-42.66H4.74C2.122-42.66 0-40.538 0-37.92Z"/>
</g>
<g clip-path="url(#clip_47)">
<path transform="matrix(1,0,0,-1,645.24,356.952)" d="M0 0C0 2.624 2.128 4.752 4.752 4.752H70.008C72.632 4.752 74.76 2.624 74.76 0V-38.016C74.76-40.641 72.632-42.768 70.008-42.768H4.752C2.128-42.768 0-40.641 0-38.016Z" fill="#ffffff" fill-opacity=".901962" fill-rule="evenodd"/>
<path transform="matrix(1,0,0,-1,645.24,356.952)" stroke-width=".96" stroke-linecap="butt" stroke-miterlimit="8" stroke-linejoin="miter" fill="none" stroke="#5b9bd5" d="M0 0C0 2.624 2.128 4.752 4.752 4.752H70.008C72.632 4.752 74.76 2.624 74.76 0V-38.016C74.76-40.641 72.632-42.768 70.008-42.768H4.752C2.128-42.768 0-40.641 0-38.016Z"/>
</g>
<text xml:space="preserve" transform="matrix(1 0 -0 1 0 540)" font-size="11.04" font-family="Calibri" font-weight="bold"><tspan y="-160.9522" x="661.8195 668.53958 675.8591 683.30007 689.7794 697.2204">ANOVOR</tspan></text>
<g clip-path="url(#clip_48)">
<path transform="matrix(1,0,0,-1,495.84,143.832)" d="M0 0C0 2.624 2.128 4.752 4.752 4.752H70.008C72.632 4.752 74.76 2.624 74.76 0V-38.016C74.76-40.641 72.632-42.768 70.008-42.768H4.752C2.128-42.768 0-40.641 0-38.016Z" fill="#7030a0" fill-rule="evenodd"/>
<path transform="matrix(1,0,0,-1,495.84,143.832)" stroke-width=".96" stroke-linecap="butt" stroke-miterlimit="8" stroke-linejoin="miter" fill="none" stroke="#ffffff" d="M0 0C0 2.624 2.128 4.752 4.752 4.752H70.008C72.632 4.752 74.76 2.624 74.76 0V-38.016C74.76-40.641 72.632-42.768 70.008-42.768H4.752C2.128-42.768 0-40.641 0-38.016Z"/>
</g>
<g clip-path="url(#clip_49)">
<path transform="matrix(1,0,0,-1,504.12,151.75202)" d="M0 0C0 2.624 2.128 4.752 4.752 4.752H70.008C72.632 4.752 74.76 2.624 74.76 0V-38.016C74.76-40.64 72.632-42.768 70.008-42.768H4.752C2.128-42.768 0-40.64 0-38.016Z" fill="#ffffff" fill-opacity=".901962" fill-rule="evenodd"/>
<path transform="matrix(1,0,0,-1,504.12,151.75202)" stroke-width=".96" stroke-linecap="butt" stroke-miterlimit="8" stroke-linejoin="miter" fill="none" stroke="#5b9bd5" d="M0 0C0 2.624 2.128 4.752 4.752 4.752H70.008C72.632 4.752 74.76 2.624 74.76 0V-38.016C74.76-40.64 72.632-42.768 70.008-42.768H4.752C2.128-42.768 0-40.64 0-38.016Z"/>
</g>
<text xml:space="preserve" transform="matrix(1 0 -0 1 0 540)" font-size="11.04" font-family="Calibri" font-weight="bold"><tspan y="-378.2804" x="520.2054 525.3655 530.76516 539.7649 545.64926 551.05 556.9343 562.81869">Samband </tspan><tspan y="-366.15849" x="525.8468 534.84658 540.3666 543.1266 545.8866 551.28628 557.1706">mellan </tspan><tspan y="-354.03657" x="521.0444 526.32479 531.7244 535.6845 538.4445 543.8442 549.7285 552.4885 558.00857">variabler</tspan></text>
<g clip-path="url(#clip_50)">
<path transform="matrix(1,0,0,-1,484.2,59.231996)" d="M0 0C0 2.624 2.128 4.752 4.752 4.752H70.008C72.632 4.752 74.76 2.624 74.76 0V-38.016C74.76-40.641 72.632-42.768 70.008-42.768H4.752C2.128-42.768 0-40.641 0-38.016Z" fill="#5b9bd5" fill-rule="evenodd"/>
<path transform="matrix(1,0,0,-1,484.2,59.231996)" stroke-width=".96" stroke-linecap="butt" stroke-miterlimit="8" stroke-linejoin="miter" fill="none" stroke="#ffffff" d="M0 0C0 2.624 2.128 4.752 4.752 4.752H70.008C72.632 4.752 74.76 2.624 74.76 0V-38.016C74.76-40.64 72.632-42.768 70.008-42.768H4.752C2.128-42.768 0-40.64 0-38.016Z"/>
</g>
<g clip-path="url(#clip_51)">
<path transform="matrix(1,0,0,-1,492.48,67.15201)" d="M0 0C0 2.624 2.128 4.752 4.752 4.752H70.008C72.632 4.752 74.76 2.624 74.76 0V-38.016C74.76-40.641 72.632-42.768 70.008-42.768H4.752C2.128-42.768 0-40.641 0-38.016Z" fill="#ffffff" fill-opacity=".901962" fill-rule="evenodd"/>
<path transform="matrix(1,0,0,-1,492.48,67.15201)" stroke-width=".96" stroke-linecap="butt" stroke-miterlimit="8" stroke-linejoin="miter" fill="none" stroke="#5b9bd5" d="M0 0C0 2.624 2.128 4.752 4.752 4.752H70.008C72.632 4.752 74.76 2.624 74.76 0V-38.016C74.76-40.641 72.632-42.768 70.008-42.768H4.752C2.128-42.768 0-40.641 0-38.016Z"/>
</g>
<text xml:space="preserve" transform="matrix(1 0 -0 1 0 540)" font-size="11.04" font-family="Calibri"><tspan y="-450.7607" x="505.1172 510.15696 513.99777 519.51779 524.56307 529.6028 535.1228 540.8823 545.2034 550.72348">Frekvenser</tspan></text>
<g clip-path="url(#clip_52)">
<path transform="matrix(1,0,0,-1,630.24,109.73999)" d="M0 0C0 2.618 2.122 4.74 4.74 4.74H70.02C72.638 4.74 74.76 2.618 74.76 0V-37.92C74.76-40.538 72.638-42.66 70.02-42.66H4.74C2.122-42.66 0-40.538 0-37.92Z" fill="#ff0000" fill-rule="evenodd"/>
<path transform="matrix(1,0,0,-1,630.24,109.73999)" stroke-width=".96" stroke-linecap="butt" stroke-miterlimit="8" stroke-linejoin="miter" fill="none" stroke="#ffffff" d="M0 0C0 2.618 2.122 4.74 4.74 4.74H70.02C72.638 4.74 74.76 2.618 74.76 0V-37.92C74.76-40.538 72.638-42.66 70.02-42.66H4.74C2.122-42.66 0-40.538 0-37.92Z"/>
</g>
<g clip-path="url(#clip_53)">
<path transform="matrix(1,0,0,-1,638.64,117.552)" d="M0 0C0 2.624 2.128 4.752 4.752 4.752H70.008C72.632 4.752 74.76 2.624 74.76 0V-38.016C74.76-40.64 72.632-42.768 70.008-42.768H4.752C2.128-42.768 0-40.64 0-38.016Z" fill="#ffffff" fill-opacity=".901962" fill-rule="evenodd"/>
<path transform="matrix(1,0,0,-1,638.64,117.552)" stroke-width=".96" stroke-linecap="butt" stroke-miterlimit="8" stroke-linejoin="miter" fill="none" stroke="#5b9bd5" d="M0 0C0 2.624 2.128 4.752 4.752 4.752H70.008C72.632 4.752 74.76 2.624 74.76 0V-38.016C74.76-40.64 72.632-42.768 70.008-42.768H4.752C2.128-42.768 0-40.64 0-38.016Z"/>
</g>
<text xml:space="preserve" transform="matrix(1 0 -0 1 0 540)" font-size="11.04" font-family="Calibri"><tspan y="-408.7502" x="666.083 671.96298 677.72366 680.2407">Chi2</tspan></text>
<text xml:space="preserve" transform="matrix(1 0 -0 1 0 540)" font-size="11.04" font-family="Calibri"><tspan y="-391.94734" x="649.523 654.2028 659.9635 662.48287 665.24288 669.5628 675.3235 681.08309 686.3624 690.20327 695.7254 699.08157">chi.square()</tspan></text>
</g>
</svg>
