<svg xmlns="http://www.w3.org/2000/svg" xmlns:xlink="http://www.w3.org/1999/xlink" version="1.1" width="720pt" height="540pt" viewBox="0 0 720 540">
<defs>
<clipPath id="clip_54">
<path transform="matrix(1,0,0,-1,0,540)" d="M0 0H720V540H0Z"/>
</clipPath>
<clipPath id="clip_55">
<path transform="matrix(1,0,0,-1,0,540)" d="M0 0H720V540H0Z"/>
</clipPath>
<clipPath id="clip_56">
<path transform="matrix(1,0,0,-1,0,540)" d="M0 0H720V540H0Z"/>
</clipPath>
<clipPath id="clip_57">
<path transform="matrix(1,0,0,-1,0,540)" d="M0 0H720V540H0Z"/>
</clipPath>
<clipPath id="clip_58">
<path transform="matrix(1,0,0,-1,0,540)" d="M0 0H720V540H0Z"/>
</clipPath>
<clipPath id="clip_59">
<path transform="matrix(1,0,0,-1,0,540)" d="M0 0H720V540H0Z"/>
</clipPath>
<clipPath id="clip_60">
<path transform="matrix(1,0,0,-1,0,540)" d="M0 0H720V540H0Z"/>
</clipPath>
<clipPath id="clip_61">
<path transform="matrix(1,0,0,-1,0,540)" d="M0 0H720V540H0Z"/>
</clipPath>
<clipPath id="clip_62">
<path transform="matrix(1,0,0,-1,0,540)" d="M0 0H720V540H0Z"/>
</clipPath>
<clipPath id="clip_63">
<path transform="matrix(1,0,0,-1,0,540)" d="M0 0H720V540H0Z"/>
</clipPath>
<clipPath id="clip_64">
<path transform="matrix(1,0,0,-1,0,540)" d="M0 0H720V540H0Z"/>
</clipPath>
<clipPath id="clip_65">
<path transform="matrix(1,0,0,-1,0,540)" d="M0 0H720V540H0Z"/>
</clipPath>
<clipPath id="clip_66">
<path transform="matrix(1,0,0,-1,0,540)" d="M0 0H720V540H0Z"/>
</clipPath>
<clipPath id="clip_67">
<path transform="matrix(1,0,0,-1,0,540)" d="M0 0H720V540H0Z"/>
</clipPath>
<clipPath id="clip_68">
<path transform="matrix(1,0,0,-1,0,540)" d="M0 0H720V540H0Z"/>
</clipPath>
<clipPath id="clip_69">
<path transform="matrix(1,0,0,-1,0,540)" d="M0 0H720V540H0Z"/>
</clipPath>
<clipPath id="clip_70">
<path transform="matrix(1,0,0,-1,0,540)" d="M0 0H720V540H0Z"/>
</clipPath>
<clipPath id="clip_71">
<path transform="matrix(1,0,0,-1,0,540)" d="M0 0H720V540H0Z"/>
</clipPath>
<clipPath id="clip_72">
<path transform="matrix(1,0,0,-1,0,540)" d="M0 0H720V540H0Z"/>
</clipPath>
<clipPath id="clip_73">
<path transform="matrix(1,0,0,-1,0,540)" d="M0 0H720V540H0Z"/>
</clipPath>
<clipPath id="clip_74">
<path transform="matrix(1,0,0,-1,0,540)" d="M0 0H720V540H0Z"/>
</clipPath>
<clipPath id="clip_75">
<path transform="matrix(1,0,0,-1,0,540)" d="M0 0H720V540H0Z"/>
</clipPath>
<clipPath id="clip_76">
<path transform="matrix(1,0,0,-1,0,540)" d="M0 0H720V540H0Z"/>
</clipPath>
<clipPath id="clip_77">
<path transform="matrix(1,0,0,-1,0,540)" d="M0 0H720V540H0Z"/>
</clipPath>
<clipPath id="clip_78">
<path transform="matrix(1,0,0,-1,0,540)" d="M0 0H720V540H0Z"/>
</clipPath>
<clipPath id="clip_79">
<path transform="matrix(1,0,0,-1,0,540)" d="M0 0H720V540H0Z"/>
</clipPath>
</defs>
<g>
<path transform="matrix(1,0,0,-1,538.5599,436.08003)" stroke-width=".96" stroke-linecap="butt" stroke-miterlimit="8" stroke-linejoin="miter" fill="none" stroke="#528cc1" d="M0 0V-29.217"/>
<path transform="matrix(1,0,0,-1,477.24,343.08003)" stroke-width=".96" stroke-linecap="butt" stroke-miterlimit="8" stroke-linejoin="miter" fill="none" stroke="#528cc1" d="M0 0V-19.91H61.392V-29.217"/>
<path transform="matrix(1,0,0,-1,415.8,436.08003)" stroke-width=".96" stroke-linecap="butt" stroke-miterlimit="8" stroke-linejoin="miter" fill="none" stroke="#528cc1" d="M0 0V-29.217"/>
<path transform="matrix(1,0,0,-1,477.1916,343.08003)" stroke-width=".96" stroke-linecap="butt" stroke-miterlimit="8" stroke-linejoin="miter" fill="none" stroke="#528cc1" d="M0 0V-19.91H-61.392V-29.217"/>
<path transform="matrix(1,0,0,-1,477.24,250.07999)" stroke-width=".96" stroke-linecap="butt" stroke-miterlimit="8" stroke-linejoin="miter" fill="none" stroke="#528cc1" d="M0 0V-29.217"/>
<path transform="matrix(1,0,0,-1,354.36,157.07999)" stroke-width=".96" stroke-linecap="butt" stroke-miterlimit="8" stroke-linejoin="miter" fill="none" stroke="#528cc1" d="M0 0V-19.91H122.783V-29.217"/>
<path transform="matrix(1,0,0,-1,293.04,343.08003)" stroke-width=".96" stroke-linecap="butt" stroke-miterlimit="8" stroke-linejoin="miter" fill="none" stroke="#528cc1" d="M0 0V-29.217"/>
<path transform="matrix(1,0,0,-1,231.6,250.07999)" stroke-width=".96" stroke-linecap="butt" stroke-miterlimit="8" stroke-linejoin="miter" fill="none" stroke="#528cc1" d="M0 0V-19.91H61.392V-29.217"/>
<path transform="matrix(1,0,0,-1,170.28,343.08003)" stroke-width=".96" stroke-linecap="butt" stroke-miterlimit="8" stroke-linejoin="miter" fill="none" stroke="#528cc1" d="M0 0V-29.217"/>
<path transform="matrix(1,0,0,-1,231.6716,250.07999)" stroke-width=".96" stroke-linecap="butt" stroke-miterlimit="8" stroke-linejoin="miter" fill="none" stroke="#528cc1" d="M0 0V-19.91H-61.392V-29.217"/>
<path transform="matrix(1,0,0,-1,354.3831,157.07999)" stroke-width=".96" stroke-linecap="butt" stroke-miterlimit="8" stroke-linejoin="miter" fill="none" stroke="#528cc1" d="M0 0V-19.91H-122.783V-29.217"/>
<path transform="matrix(1,0,0,-1,354.36,64.07999)" stroke-width=".96" stroke-linecap="butt" stroke-miterlimit="8" stroke-linejoin="miter" fill="none" stroke="#477ba9" d="M0 0V-29.217"/>
<g clip-path="url(#clip_54)">
<path transform="matrix(1,0,0,-1,206.64,6.6240847)" d="M0 0C0 3.526 2.858 6.384 6.384 6.384H289.176C292.702 6.384 295.56 3.526 295.56 0V-51.072C295.56-54.598 292.702-57.456 289.176-57.456H6.384C2.858-57.456 0-54.598 0-51.072Z" fill="#7030a0" fill-rule="evenodd"/>
<path transform="matrix(1,0,0,-1,206.64,6.6240847)" stroke-width=".96" stroke-linecap="butt" stroke-miterlimit="8" stroke-linejoin="miter" fill="none" stroke="#ffffff" d="M0 0C0 3.526 2.858 6.384 6.384 6.384H289.176C292.702 6.384 295.56 3.526 295.56 0V-51.072C295.56-54.598 292.702-57.456 289.176-57.456H6.384C2.858-57.456 0-54.598 0-51.072Z"/>
</g>
<g clip-path="url(#clip_55)">
<path transform="matrix(1,0,0,-1,217.8,17.292115)" d="M0 0C0 3.519 2.853 6.372 6.372 6.372H289.188C292.707 6.372 295.56 3.519 295.56 0V-50.976C295.56-54.495 292.707-57.348 289.188-57.348H6.372C2.853-57.348 0-54.495 0-50.976Z" fill="#ffffff" fill-opacity=".901962" fill-rule="evenodd"/>
<path transform="matrix(1,0,0,-1,217.8,17.292115)" stroke-width=".96" stroke-linecap="butt" stroke-miterlimit="8" stroke-linejoin="miter" fill="none" stroke="#5b9bd5" d="M0 0C0 3.519 2.853 6.372 6.372 6.372H289.188C292.707 6.372 295.56 3.519 295.56 0V-50.976C295.56-54.495 292.707-57.348 289.188-57.348H6.372C2.853-57.348 0-54.495 0-50.976Z"/>
</g>
<text xml:space="preserve" transform="matrix(1 0 -0 1 0 540)" font-size="24" font-family="Calibri" font-weight="bold"><tspan y="-490.4812" x="249.1485 260.54853 272.42854 291.98854 304.82853 316.70854 329.54853">Samband</tspan></text>
<text xml:space="preserve" transform="matrix(1 0 -0 1 0 540)" font-size="20.04" font-family="Calibri" font-weight="bold"><tspan y="-490.4812" x="346.8285 363.14906 373.22917 378.149 383.06883 392.90846 403.708 408.1569 417.39735 427.23698 434.3171 439.23695 449.07658 459.87614 464.79597 474.87608">mellan variabler</tspan></text>
<g clip-path="url(#clip_56)">
<path transform="matrix(1,0,0,-1,304.2,99.624118)" d="M0 0C0 3.526 2.858 6.384 6.384 6.384H94.056C97.582 6.384 100.44 3.526 100.44 0V-51.072C100.44-54.598 97.582-57.456 94.056-57.456H6.384C2.858-57.456 0-54.598 0-51.072Z" fill="#5b9bd5" fill-rule="evenodd"/>
<path transform="matrix(1,0,0,-1,304.2,99.624118)" stroke-width=".96" stroke-linecap="butt" stroke-miterlimit="8" stroke-linejoin="miter" fill="none" stroke="#ffffff" d="M0 0C0 3.526 2.858 6.384 6.384 6.384H94.056C97.582 6.384 100.44 3.526 100.44 0V-51.072C100.44-54.598 97.582-57.456 94.056-57.456H6.384C2.858-57.456 0-54.598 0-51.072Z"/>
</g>
<g clip-path="url(#clip_57)">
<path transform="matrix(1,0,0,-1,315.36,110.29199)" d="M0 0C0 3.519 2.853 6.372 6.372 6.372H94.068C97.587 6.372 100.44 3.519 100.44 0V-50.976C100.44-54.495 97.587-57.348 94.068-57.348H6.372C2.853-57.348 0-54.495 0-50.976Z" fill="#ffffff" fill-opacity=".901962" fill-rule="evenodd"/>
<path transform="matrix(1,0,0,-1,315.36,110.29199)" stroke-width=".96" stroke-linecap="butt" stroke-miterlimit="8" stroke-linejoin="miter" fill="none" stroke="#5b9bd5" d="M0 0C0 3.519 2.853 6.372 6.372 6.372H94.068C97.587 6.372 100.44 3.519 100.44 0V-50.976C100.44-54.495 97.587-57.348 94.068-57.348H6.372C2.853-57.348 0-54.495 0-50.976Z"/>
</g>
<text xml:space="preserve" transform="matrix(1 0 -0 1 0 540)" font-size="12" font-family="Calibri"><tspan y="-414.028" x="333.6634 339.18339 344.9434 354.3034 359.5834 365.3434 369.54344 372.30345 377.94227 382.02229 384.7823 391.14228 397.5023">Samvariation </tspan><tspan y="-400.828" x="330.7834 340.3834 346.3834 349.1434 351.9034 357.66343 364.02345 366.66343 371.82344 374.5822 380.9422 385.9822 392.34223 394.9822 400.3822 403.14219">mellan x och y  </tspan><tspan y="-387.628" x="324.0634 330.0634 332.8234 335.5834 341.5834 345.78343 348.42225 353.58226 356.34226 362.70228 368.2223 373.5023 379.5023 383.7023 388.8623 394.6223 398.82234 401.58235 406.98234">eller x p&#x00e5;verkar y </tspan></text>
<g clip-path="url(#clip_58)">
<path transform="matrix(1,0,0,-1,181.44,192.62412)" d="M0 0C0 3.526 2.858 6.384 6.384 6.384H94.056C97.582 6.384 100.44 3.526 100.44 0V-51.072C100.44-54.598 97.582-57.456 94.056-57.456H6.384C2.858-57.456 0-54.598 0-51.072Z" fill="#5b9bd5" fill-rule="evenodd"/>
<path transform="matrix(1,0,0,-1,181.44,192.62412)" stroke-width=".96" stroke-linecap="butt" stroke-miterlimit="8" stroke-linejoin="miter" fill="none" stroke="#ffffff" d="M0 0C0 3.526 2.858 6.384 6.384 6.384H94.056C97.582 6.384 100.44 3.526 100.44 0V-51.072C100.44-54.598 97.582-57.456 94.056-57.456H6.384C2.858-57.456 0-54.598 0-51.072Z"/>
</g>
<g clip-path="url(#clip_59)">
<path transform="matrix(1,0,0,-1,192.6,203.29199)" d="M0 0C0 3.519 2.853 6.372 6.372 6.372H94.068C97.587 6.372 100.44 3.519 100.44 0V-50.976C100.44-54.495 97.587-57.348 94.068-57.348H6.372C2.853-57.348 0-54.495 0-50.976Z" fill="#ffffff" fill-opacity=".901962" fill-rule="evenodd"/>
<path transform="matrix(1,0,0,-1,192.6,203.29199)" stroke-width=".96" stroke-linecap="butt" stroke-miterlimit="8" stroke-linejoin="miter" fill="none" stroke="#5b9bd5" d="M0 0C0 3.519 2.853 6.372 6.372 6.372H94.068C97.587 6.372 100.44 3.519 100.44 0V-50.976C100.44-54.495 97.587-57.348 94.068-57.348H6.372C2.853-57.348 0-54.495 0-50.976Z"/>
</g>
<text xml:space="preserve" transform="matrix(1 0 -0 1 0 540)" font-size="12" font-family="Calibri"><tspan y="-307.8347" x="210.8802 216.4002 222.1602 231.5202 236.8002 242.5602 246.7602 249.52019 255.15898 259.23899 261.999 268.35899">Samvariation</tspan></text>
<g clip-path="url(#clip_60)">
<path transform="matrix(1,0,0,-1,120,285.7319)" d="M0 0C0 3.519 2.853 6.372 6.372 6.372H94.068C97.587 6.372 100.44 3.519 100.44 0V-50.976C100.44-54.495 97.587-57.348 94.068-57.348H6.372C2.853-57.348 0-54.495 0-50.976Z" fill="#5b9bd5" fill-rule="evenodd"/>
<path transform="matrix(1,0,0,-1,120,285.7319)" stroke-width=".96" stroke-linecap="butt" stroke-miterlimit="8" stroke-linejoin="miter" fill="none" stroke="#ffffff" d="M0 0C0 3.519 2.853 6.372 6.372 6.372H94.068C97.587 6.372 100.44 3.519 100.44 0V-50.976C100.44-54.495 97.587-57.348 94.068-57.348H6.372C2.853-57.348 0-54.495 0-50.976Z"/>
</g>
<g clip-path="url(#clip_61)">
<path transform="matrix(1,0,0,-1,131.16,296.30403)" d="M0 0C0 3.526 2.858 6.384 6.384 6.384H94.056C97.582 6.384 100.44 3.526 100.44 0V-51.072C100.44-54.598 97.582-57.456 94.056-57.456H6.384C2.858-57.456 0-54.598 0-51.072Z" fill="#ffffff" fill-opacity=".901962" fill-rule="evenodd"/>
<path transform="matrix(1,0,0,-1,131.16,296.30403)" stroke-width=".96" stroke-linecap="butt" stroke-miterlimit="8" stroke-linejoin="miter" fill="none" stroke="#5b9bd5" d="M0 0C0 3.526 2.858 6.384 6.384 6.384H94.056C97.582 6.384 100.44 3.526 100.44 0V-51.072C100.44-54.598 97.582-57.456 94.056-57.456H6.384C2.858-57.456 0-54.598 0-51.072Z"/>
</g>
<text xml:space="preserve" transform="matrix(1 0 -0 1 0 540)" font-size="12" font-family="Calibri"><tspan y="-214.8264" x="143.8461 151.6461 158.0061 162.2061 171.8061 177.5661 180.3261 183.80609 190.16489 194.24489 200.60489 206.60489 209.36489 215.00489">Normalf&#x00f6;rdelat</tspan></text>
<g clip-path="url(#clip_62)">
<path transform="matrix(1,0,0,-1,120,378.7319)" d="M0 0C0 3.519 2.853 6.372 6.372 6.372H94.068C97.587 6.372 100.44 3.519 100.44 0V-50.976C100.44-54.495 97.587-57.348 94.068-57.348H6.372C2.853-57.348 0-54.495 0-50.976Z" fill="#ff0000" fill-rule="evenodd"/>
<path transform="matrix(1,0,0,-1,120,378.7319)" stroke-width=".96" stroke-linecap="butt" stroke-miterlimit="8" stroke-linejoin="miter" fill="none" stroke="#ffffff" d="M0 0C0 3.519 2.853 6.372 6.372 6.372H94.068C97.587 6.372 100.44 3.519 100.44 0V-50.976C100.44-54.495 97.587-57.348 94.068-57.348H6.372C2.853-57.348 0-54.495 0-50.976Z"/>
</g>
<g clip-path="url(#clip_63)">
<path transform="matrix(1,0,0,-1,131.16,389.30403)" d="M0 0C0 3.526 2.858 6.384 6.384 6.384H94.056C97.582 6.384 100.44 3.526 100.44 0V-51.072C100.44-54.598 97.582-57.456 94.056-57.456H6.384C2.858-57.456 0-54.598 0-51.072Z" fill="#ffffff" fill-opacity=".901962" fill-rule="evenodd"/>
<path transform="matrix(1,0,0,-1,131.16,389.30403)" stroke-width=".96" stroke-linecap="butt" stroke-miterlimit="8" stroke-linejoin="miter" fill="none" stroke="#5b9bd5" d="M0 0C0 3.526 2.858 6.384 6.384 6.384H94.056C97.582 6.384 100.44 3.526 100.44 0V-51.072C100.44-54.598 97.582-57.456 94.056-57.456H6.384C2.858-57.456 0-54.598 0-51.072Z"/>
</g>
<text xml:space="preserve" transform="matrix(1 0 -0 1 0 540)" font-size="12" font-family="Calibri"><tspan y="-137.5682" x="161.8486 167.8486 173.8486 179.60861 183.56862 188.24863 194.60863 200.96863">Pearson </tspan><tspan y="-124.36821" x="154.5286 159.56859 165.92859 170.12859 174.20859 180.20859 182.96858 188.60738 192.68738 195.44738 201.80738">korrelation</tspan></text>
<text xml:space="preserve" transform="matrix(1 0 -0 1 0 540)" font-size="12" font-family="Calibri"><tspan y="-106.00821" x="159.92859 164.84859 171.20859 174.20859 176.96858 180.92859 186.92859 191.48859 195.56859 199.1686">cor.test()</tspan></text>
<g clip-path="url(#clip_64)">
<path transform="matrix(1,0,0,-1,242.76,285.7319)" d="M0 0C0 3.519 2.853 6.372 6.372 6.372H94.068C97.587 6.372 100.44 3.519 100.44 0V-50.976C100.44-54.495 97.587-57.348 94.068-57.348H6.372C2.853-57.348 0-54.495 0-50.976Z" fill="#5b9bd5" fill-rule="evenodd"/>
<path transform="matrix(1,0,0,-1,242.76,285.7319)" stroke-width=".96" stroke-linecap="butt" stroke-miterlimit="8" stroke-linejoin="miter" fill="none" stroke="#ffffff" d="M0 0C0 3.519 2.853 6.372 6.372 6.372H94.068C97.587 6.372 100.44 3.519 100.44 0V-50.976C100.44-54.495 97.587-57.348 94.068-57.348H6.372C2.853-57.348 0-54.495 0-50.976Z"/>
</g>
<g clip-path="url(#clip_65)">
<path transform="matrix(1,0,0,-1,253.92,296.30403)" d="M0 0C0 3.526 2.858 6.384 6.384 6.384H94.056C97.582 6.384 100.44 3.526 100.44 0V-51.072C100.44-54.598 97.582-57.456 94.056-57.456H6.384C2.858-57.456 0-54.598 0-51.072Z" fill="#ffffff" fill-opacity=".901962" fill-rule="evenodd"/>
<path transform="matrix(1,0,0,-1,253.92,296.30403)" stroke-width=".96" stroke-linecap="butt" stroke-miterlimit="8" stroke-linejoin="miter" fill="none" stroke="#5b9bd5" d="M0 0C0 3.526 2.858 6.384 6.384 6.384H94.056C97.582 6.384 100.44 3.526 100.44 0V-51.072C100.44-54.598 97.582-57.456 94.056-57.456H6.384C2.858-57.456 0-54.598 0-51.072Z"/>
</g>
<text xml:space="preserve" transform="matrix(1 0 -0 1 0 540)" font-size="12" font-family="Calibri"><tspan y="-214.8264" x="261.4694 264.4694 269.5094 274.5494 280.54939 284.26939 290.6294 296.3894 300.34944 306.10945 315.70945 321.58946 325.66947 329.86949 332.6295 337.3095 342.7095">Icke-parametriskt</tspan></text>
<g clip-path="url(#clip_66)">
<path transform="matrix(1,0,0,-1,242.76,378.7319)" d="M0 0C0 3.519 2.853 6.372 6.372 6.372H94.068C97.587 6.372 100.44 3.519 100.44 0V-50.976C100.44-54.495 97.587-57.348 94.068-57.348H6.372C2.853-57.348 0-54.495 0-50.976Z" fill="#ff0000" fill-rule="evenodd"/>
<path transform="matrix(1,0,0,-1,242.76,378.7319)" stroke-width=".96" stroke-linecap="butt" stroke-miterlimit="8" stroke-linejoin="miter" fill="none" stroke="#ffffff" d="M0 0C0 3.519 2.853 6.372 6.372 6.372H94.068C97.587 6.372 100.44 3.519 100.44 0V-50.976C100.44-54.495 97.587-57.348 94.068-57.348H6.372C2.853-57.348 0-54.495 0-50.976Z"/>
</g>
<g clip-path="url(#clip_67)">
<path transform="matrix(1,0,0,-1,253.92,389.30403)" d="M0 0C0 3.526 2.858 6.384 6.384 6.384H94.056C97.582 6.384 100.44 3.526 100.44 0V-51.072C100.44-54.598 97.582-57.456 94.056-57.456H6.384C2.858-57.456 0-54.598 0-51.072Z" fill="#ffffff" fill-opacity=".901962" fill-rule="evenodd"/>
<path transform="matrix(1,0,0,-1,253.92,389.30403)" stroke-width=".96" stroke-linecap="butt" stroke-miterlimit="8" stroke-linejoin="miter" fill="none" stroke="#5b9bd5" d="M0 0C0 3.526 2.858 6.384 6.384 6.384H94.056C97.582 6.384 100.44 3.526 100.44 0V-51.072C100.44-54.598 97.582-57.456 94.056-57.456H6.384C2.858-57.456 0-54.598 0-51.072Z"/>
</g>
<text xml:space="preserve" transform="matrix(1 0 -0 1 0 540)" font-size="12" font-family="Calibri"><tspan y="-144.1607" x="279.3494 284.8694 291.2294 297.2294 302.9894 307.18943 316.78944 322.54945 328.90827">Spearman </tspan><tspan y="-130.96071" x="277.3094 282.34938 288.70936 292.90937 296.98939 302.98939 305.7494 311.3882 315.46824 318.22825 324.58824">korrelation</tspan></text>
<text xml:space="preserve" transform="matrix(1 0 -0 1 0 540)" font-size="12" font-family="Calibri"><tspan y="-112.60071" x="259.66938 264.5894 270.94938 273.94938 276.70939 280.66938 286.66938 291.22938 295.3094 298.9094 308.5094 314.3894 318.4694 324.8294 331.18943 337.54945 343.54945">cor.test(method=&#x201c;</tspan><tspan y="-99.520709" x="275.5094 280.18943 286.54945 292.54945 298.30946 302.50947 312.10948 317.86949 324.2295 329.2695">spearman&#x201d;)</tspan></text>
<g clip-path="url(#clip_68)">
<path transform="matrix(1,0,0,-1,426.96,192.62412)" d="M0 0C0 3.526 2.858 6.384 6.384 6.384H94.056C97.582 6.384 100.44 3.526 100.44 0V-51.072C100.44-54.598 97.582-57.456 94.056-57.456H6.384C2.858-57.456 0-54.598 0-51.072Z" fill="#5b9bd5" fill-rule="evenodd"/>
<path transform="matrix(1,0,0,-1,426.96,192.62412)" stroke-width=".96" stroke-linecap="butt" stroke-miterlimit="8" stroke-linejoin="miter" fill="none" stroke="#ffffff" d="M0 0C0 3.526 2.858 6.384 6.384 6.384H94.056C97.582 6.384 100.44 3.526 100.44 0V-51.072C100.44-54.598 97.582-57.456 94.056-57.456H6.384C2.858-57.456 0-54.598 0-51.072Z"/>
</g>
<g clip-path="url(#clip_69)">
<path transform="matrix(1,0,0,-1,438.12,203.29199)" d="M0 0C0 3.519 2.853 6.372 6.372 6.372H94.068C97.587 6.372 100.44 3.519 100.44 0V-50.976C100.44-54.495 97.587-57.348 94.068-57.348H6.372C2.853-57.348 0-54.495 0-50.976Z" fill="#ffffff" fill-opacity=".901962" fill-rule="evenodd"/>
<path transform="matrix(1,0,0,-1,438.12,203.29199)" stroke-width=".96" stroke-linecap="butt" stroke-miterlimit="8" stroke-linejoin="miter" fill="none" stroke="#5b9bd5" d="M0 0C0 3.519 2.853 6.372 6.372 6.372H94.068C97.587 6.372 100.44 3.519 100.44 0V-50.976C100.44-54.495 97.587-57.348 94.068-57.348H6.372C2.853-57.348 0-54.495 0-50.976Z"/>
</g>
<text xml:space="preserve" transform="matrix(1 0 -0 1 0 540)" font-size="12" font-family="Calibri"><tspan y="-307.8347" x="466.1666 472.1666 477.6866 482.9666 488.9666 493.16664 498.3266 504.0866">P&#x00e5;verkan</tspan></text>
<g clip-path="url(#clip_70)">
<path transform="matrix(1,0,0,-1,426.96,285.7319)" d="M0 0C0 3.519 2.853 6.372 6.372 6.372H94.068C97.587 6.372 100.44 3.519 100.44 0V-50.976C100.44-54.495 97.587-57.348 94.068-57.348H6.372C2.853-57.348 0-54.495 0-50.976Z" fill="#5b9bd5" fill-rule="evenodd"/>
<path transform="matrix(1,0,0,-1,426.96,285.7319)" stroke-width=".96" stroke-linecap="butt" stroke-miterlimit="8" stroke-linejoin="miter" fill="none" stroke="#ffffff" d="M0 0C0 3.519 2.853 6.372 6.372 6.372H94.068C97.587 6.372 100.44 3.519 100.44 0V-50.976C100.44-54.495 97.587-57.348 94.068-57.348H6.372C2.853-57.348 0-54.495 0-50.976Z"/>
</g>
<g clip-path="url(#clip_71)">
<path transform="matrix(1,0,0,-1,438.12,296.30403)" d="M0 0C0 3.526 2.858 6.384 6.384 6.384H94.056C97.582 6.384 100.44 3.526 100.44 0V-51.072C100.44-54.598 97.582-57.456 94.056-57.456H6.384C2.858-57.456 0-54.598 0-51.072Z" fill="#ffffff" fill-opacity=".901962" fill-rule="evenodd"/>
<path transform="matrix(1,0,0,-1,438.12,296.30403)" stroke-width=".96" stroke-linecap="butt" stroke-miterlimit="8" stroke-linejoin="miter" fill="none" stroke="#5b9bd5" d="M0 0C0 3.526 2.858 6.384 6.384 6.384H94.056C97.582 6.384 100.44 3.526 100.44 0V-51.072C100.44-54.598 97.582-57.456 94.056-57.456H6.384C2.858-57.456 0-54.598 0-51.072Z"/>
</g>
<text xml:space="preserve" transform="matrix(1 0 -0 1 0 540)" font-size="12" font-family="Calibri"><tspan y="-221.4189" x="448.0441 453.0841 455.84413 462.20414 465.08415 470.84416 475.04417 479.123 481.64299 487.64299 490.40299 493.163 499.163 503.363 506.003 508.763 513.80307 518.843 524.8441">Linj&#x00e4;rt eller icke-</tspan><tspan y="-208.2189" x="450.2041 452.9641 455.72413 462.08415 464.96415 470.72416 474.92417 479.00419 481.52418 486.2042 491.9642 501.5642 507.92424 513.6842 520.0442">linj&#x00e4;rt samband</tspan></text>
<g clip-path="url(#clip_72)">
<path transform="matrix(1,0,0,-1,365.64,378.7319)" d="M0 0C0 3.519 2.853 6.372 6.372 6.372H94.068C97.587 6.372 100.44 3.519 100.44 0V-50.976C100.44-54.495 97.587-57.348 94.068-57.348H6.372C2.853-57.348 0-54.495 0-50.976Z" fill="#5b9bd5" fill-rule="evenodd"/>
<path transform="matrix(1,0,0,-1,365.64,378.7319)" stroke-width=".96" stroke-linecap="butt" stroke-miterlimit="8" stroke-linejoin="miter" fill="none" stroke="#ffffff" d="M0 0C0 3.519 2.853 6.372 6.372 6.372H94.068C97.587 6.372 100.44 3.519 100.44 0V-50.976C100.44-54.495 97.587-57.348 94.068-57.348H6.372C2.853-57.348 0-54.495 0-50.976Z"/>
</g>
<g clip-path="url(#clip_73)">
<path transform="matrix(1,0,0,-1,376.8,389.30403)" d="M0 0C0 3.526 2.858 6.384 6.384 6.384H94.056C97.582 6.384 100.44 3.526 100.44 0V-51.072C100.44-54.598 97.582-57.456 94.056-57.456H6.384C2.858-57.456 0-54.598 0-51.072Z" fill="#ffffff" fill-opacity=".901962" fill-rule="evenodd"/>
<path transform="matrix(1,0,0,-1,376.8,389.30403)" stroke-width=".96" stroke-linecap="butt" stroke-miterlimit="8" stroke-linejoin="miter" fill="none" stroke="#5b9bd5" d="M0 0C0 3.526 2.858 6.384 6.384 6.384H94.056C97.582 6.384 100.44 3.526 100.44 0V-51.072C100.44-54.598 97.582-57.456 94.056-57.456H6.384C2.858-57.456 0-54.598 0-51.072Z"/>
</g>
<text xml:space="preserve" transform="matrix(1 0 -0 1 0 540)" font-size="12" font-family="Calibri"><tspan y="-121.8182" x="411.3725 416.4125 419.17253 425.53254 428.41255 434.17256 438.37257">Linj&#x00e4;rt</tspan></text>
<g clip-path="url(#clip_74)">
<path transform="matrix(1,0,0,-1,365.64,471.732)" d="M0 0C0 3.519 2.853 6.372 6.372 6.372H94.068C97.587 6.372 100.44 3.519 100.44 0V-50.976C100.44-54.495 97.587-57.348 94.068-57.348H6.372C2.853-57.348 0-54.495 0-50.976Z" fill="#ff0000" fill-rule="evenodd"/>
<path transform="matrix(1,0,0,-1,365.64,471.732)" stroke-width=".96" stroke-linecap="butt" stroke-miterlimit="8" stroke-linejoin="miter" fill="none" stroke="#ffffff" d="M0 0C0 3.519 2.853 6.372 6.372 6.372H94.068C97.587 6.372 100.44 3.519 100.44 0V-50.976C100.44-54.495 97.587-57.348 94.068-57.348H6.372C2.853-57.348 0-54.495 0-50.976Z"/>
</g>
<g clip-path="url(#clip_75)">
<path transform="matrix(1,0,0,-1,376.8,482.30403)" d="M0 0C0 3.526 2.858 6.384 6.384 6.384H94.056C97.582 6.384 100.44 3.526 100.44 0V-51.072C100.44-54.598 97.582-57.456 94.056-57.456H6.384C2.858-57.456 0-54.598 0-51.072Z" fill="#ffffff" fill-opacity=".901962" fill-rule="evenodd"/>
<path transform="matrix(1,0,0,-1,376.8,482.30403)" stroke-width=".96" stroke-linecap="butt" stroke-miterlimit="8" stroke-linejoin="miter" fill="none" stroke="#5b9bd5" d="M0 0C0 3.526 2.858 6.384 6.384 6.384H94.056C97.582 6.384 100.44 3.526 100.44 0V-51.072C100.44-54.598 97.582-57.456 94.056-57.456H6.384C2.858-57.456 0-54.598 0-51.072Z"/>
</g>
<text xml:space="preserve" transform="matrix(1 0 -0 1 0 540)" font-size="12" font-family="Calibri"><tspan y="-37.9674" x="386.775 391.815 394.575 400.93504 403.81504 409.57505 413.77507 416.41505 420.49388 426.49388 432.13389 436.2139 442.2139 446.89393 451.57395 454.33396 460.69395">Linj&#x00e4;r regression</tspan></text>
<text xml:space="preserve" transform="matrix(1 0 -0 1 0 540)" font-size="12" font-family="Calibri"><tspan y="-19.607399" x="391.215 393.975 403.575 407.17503 410.77503 413.535 419.535 422.295 425.05503 431.05503 437.89503 443.65504 450.015 455.415 459.015">lm() elleraov()</tspan></text>
<g clip-path="url(#clip_76)">
<path transform="matrix(1,0,0,-1,488.4,378.7319)" d="M0 0C0 3.519 2.853 6.372 6.372 6.372H94.068C97.587 6.372 100.44 3.519 100.44 0V-50.976C100.44-54.495 97.587-57.348 94.068-57.348H6.372C2.853-57.348 0-54.495 0-50.976Z" fill="#5b9bd5" fill-rule="evenodd"/>
<path transform="matrix(1,0,0,-1,488.4,378.7319)" stroke-width=".96" stroke-linecap="butt" stroke-miterlimit="8" stroke-linejoin="miter" fill="none" stroke="#ffffff" d="M0 0C0 3.519 2.853 6.372 6.372 6.372H94.068C97.587 6.372 100.44 3.519 100.44 0V-50.976C100.44-54.495 97.587-57.348 94.068-57.348H6.372C2.853-57.348 0-54.495 0-50.976Z"/>
</g>
<g clip-path="url(#clip_77)">
<path transform="matrix(1,0,0,-1,499.56,389.30403)" d="M0 0C0 3.526 2.858 6.384 6.384 6.384H94.056C97.582 6.384 100.44 3.526 100.44 0V-51.072C100.44-54.598 97.582-57.456 94.056-57.456H6.384C2.858-57.456 0-54.598 0-51.072Z" fill="#ffffff" fill-opacity=".901962" fill-rule="evenodd"/>
<path transform="matrix(1,0,0,-1,499.56,389.30403)" stroke-width=".96" stroke-linecap="butt" stroke-miterlimit="8" stroke-linejoin="miter" fill="none" stroke="#5b9bd5" d="M0 0C0 3.526 2.858 6.384 6.384 6.384H94.056C97.582 6.384 100.44 3.526 100.44 0V-51.072C100.44-54.598 97.582-57.456 94.056-57.456H6.384C2.858-57.456 0-54.598 0-51.072Z"/>
</g>
<text xml:space="preserve" transform="matrix(1 0 -0 1 0 540)" font-size="12" font-family="Calibri"><tspan y="-121.8182" x="523.9582 526.9582 531.99819 537.03817 543.0382 546.7582 549.5182 552.2782 558.6382 561.5182 567.2782 571.4782">Icke-linj&#x00e4;rt</tspan></text>
<g clip-path="url(#clip_78)">
<path transform="matrix(1,0,0,-1,488.4,471.732)" d="M0 0C0 3.519 2.853 6.372 6.372 6.372H94.068C97.587 6.372 100.44 3.519 100.44 0V-50.976C100.44-54.495 97.587-57.348 94.068-57.348H6.372C2.853-57.348 0-54.495 0-50.976Z" fill-rule="evenodd"/>
<path transform="matrix(1,0,0,-1,488.4,471.732)" stroke-width=".96" stroke-linecap="butt" stroke-miterlimit="8" stroke-linejoin="miter" fill="none" stroke="#ffffff" d="M0 0C0 3.519 2.853 6.372 6.372 6.372H94.068C97.587 6.372 100.44 3.519 100.44 0V-50.976C100.44-54.495 97.587-57.348 94.068-57.348H6.372C2.853-57.348 0-54.495 0-50.976Z"/>
</g>
<g clip-path="url(#clip_79)">
<path transform="matrix(1,0,0,-1,499.56,482.30403)" d="M0 0C0 3.526 2.858 6.384 6.384 6.384H94.056C97.582 6.384 100.44 3.526 100.44 0V-51.072C100.44-54.598 97.582-57.456 94.056-57.456H6.384C2.858-57.456 0-54.598 0-51.072Z" fill="#ffffff" fill-opacity=".901962" fill-rule="evenodd"/>
<path transform="matrix(1,0,0,-1,499.56,482.30403)" stroke-width=".96" stroke-linecap="butt" stroke-miterlimit="8" stroke-linejoin="miter" fill="none" stroke="#5b9bd5" d="M0 0C0 3.526 2.858 6.384 6.384 6.384H94.056C97.582 6.384 100.44 3.526 100.44 0V-51.072C100.44-54.598 97.582-57.456 94.056-57.456H6.384C2.858-57.456 0-54.598 0-51.072Z"/>
</g>
<text xml:space="preserve" transform="matrix(1 0 -0 1 0 540)" font-size="12" font-family="Calibri"><tspan y="-44.5599" x="525.9957 528.9957 534.0357 539.0757 545.07577 548.7957 551.5557 554.31576 560.6757 563.5557 569.31576 573.51577">Icke-linj&#x00e4;r </tspan><tspan y="-31.359898" x="524.4357 528.51577 534.51577 540.15579 544.2358 550.2358 554.9158 559.59579 562.3558 568.71578">regression</tspan></text>
<text xml:space="preserve" transform="matrix(1 0 -0 1 0 540)" font-size="12" font-family="Calibri"><tspan y="-12.999897" x="531.51577 537.8758 540.6358 545.3158 550.35586 560.6757 564.2757">nlsLM()</tspan></text>
</g>
</svg>
