<svg xmlns="http://www.w3.org/2000/svg" xmlns:xlink="http://www.w3.org/1999/xlink" version="1.1" width="720pt" height="540pt" viewBox="0 0 720 540">
<defs>
<clipPath id="clip_80">
<path transform="matrix(1,0,0,-1,0,540)" d="M0 0H720V540H0Z"/>
</clipPath>
<clipPath id="clip_81">
<path transform="matrix(1,0,0,-1,0,540)" d="M0 0H720V540H0Z"/>
</clipPath>
<clipPath id="clip_82">
<path transform="matrix(1,0,0,-1,0,540)" d="M0 0H720V540H0Z"/>
</clipPath>
<clipPath id="clip_83">
<path transform="matrix(1,0,0,-1,0,540)" d="M0 0H720V540H0Z"/>
</clipPath>
<clipPath id="clip_84">
<path transform="matrix(1,0,0,-1,0,540)" d="M0 0H720V540H0Z"/>
</clipPath>
<clipPath id="clip_85">
<path transform="matrix(1,0,0,-1,0,540)" d="M0 0H720V540H0Z"/>
</clipPath>
<clipPath id="clip_86">
<path transform="matrix(1,0,0,-1,0,540)" d="M0 0H720V540H0Z"/>
</clipPath>
<clipPath id="clip_87">
<path transform="matrix(1,0,0,-1,0,540)" d="M0 0H720V540H0Z"/>
</clipPath>
<clipPath id="clip_88">
<path transform="matrix(1,0,0,-1,0,540)" d="M0 0H720V540H0Z"/>
</clipPath>
<clipPath id="clip_89">
<path transform="matrix(1,0,0,-1,0,540)" d="M0 0H720V540H0Z"/>
</clipPath>
<clipPath id="clip_90">
<path transform="matrix(1,0,0,-1,0,540)" d="M0 0H720V540H0Z"/>
</clipPath>
<clipPath id="clip_91">
<path transform="matrix(1,0,0,-1,0,540)" d="M0 0H720V540H0Z"/>
</clipPath>
<clipPath id="clip_92">
<path transform="matrix(1,0,0,-1,0,540)" d="M0 0H720V540H0Z"/>
</clipPath>
<clipPath id="clip_93">
<path transform="matrix(1,0,0,-1,0,540)" d="M0 0H720V540H0Z"/>
</clipPath>
<clipPath id="clip_94">
<path transform="matrix(1,0,0,-1,0,540)" d="M0 0H720V540H0Z"/>
</clipPath>
<clipPath id="clip_95">
<path transform="matrix(1,0,0,-1,0,540)" d="M0 0H720V540H0Z"/>
</clipPath>
<clipPath id="clip_96">
<path transform="matrix(1,0,0,-1,0,540)" d="M0 0H720V540H0Z"/>
</clipPath>
<clipPath id="clip_97">
<path transform="matrix(1,0,0,-1,0,540)" d="M0 0H720V540H0Z"/>
</clipPath>
<clipPath id="clip_98">
<path transform="matrix(1,0,0,-1,0,540)" d="M0 0H720V540H0Z"/>
</clipPath>
<clipPath id="clip_99">
<path transform="matrix(1,0,0,-1,0,540)" d="M0 0H720V540H0Z"/>
</clipPath>
<clipPath id="clip_100">
<path transform="matrix(1,0,0,-1,0,540)" d="M0 0H720V540H0Z"/>
</clipPath>
<clipPath id="clip_101">
<path transform="matrix(1,0,0,-1,0,540)" d="M0 0H720V540H0Z"/>
</clipPath>
<clipPath id="clip_102">
<path transform="matrix(1,0,0,-1,0,540)" d="M0 0H720V540H0Z"/>
</clipPath>
<clipPath id="clip_103">
<path transform="matrix(1,0,0,-1,0,540)" d="M0 0H720V540H0Z"/>
</clipPath>
<clipPath id="clip_104">
<path transform="matrix(1,0,0,-1,0,540)" d="M0 0H720V540H0Z"/>
</clipPath>
<clipPath id="clip_105">
<path transform="matrix(1,0,0,-1,0,540)" d="M0 0H720V540H0Z"/>
</clipPath>
<clipPath id="clip_106">
<path transform="matrix(1,0,0,-1,0,540)" d="M0 0H720V540H0Z"/>
</clipPath>
<clipPath id="clip_107">
<path transform="matrix(1,0,0,-1,0,540)" d="M0 0H720V540H0Z"/>
</clipPath>
<clipPath id="clip_108">
<path transform="matrix(1,0,0,-1,0,540)" d="M0 0H720V540H0Z"/>
</clipPath>
<clipPath id="clip_109">
<path transform="matrix(1,0,0,-1,0,540)" d="M0 0H720V540H0Z"/>
</clipPath>
<clipPath id="clip_110">
<path transform="matrix(1,0,0,-1,0,540)" d="M0 0H720V540H0Z"/>
</clipPath>
<clipPath id="clip_111">
<path transform="matrix(1,0,0,-1,0,540)" d="M0 0H720V540H0Z"/>
</clipPath>
<clipPath id="clip_112">
<path transform="matrix(1,0,0,-1,0,540)" d="M0 0H720V540H0Z"/>
</clipPath>
<clipPath id="clip_113">
<path transform="matrix(1,0,0,-1,0,540)" d="M0 0H720V540H0Z"/>
</clipPath>
</defs>
<g>
<path transform="matrix(1,0,0,-1,630.72,250.07999)" stroke-width=".96" stroke-linecap="butt" stroke-miterlimit="8" stroke-linejoin="miter" fill="none" stroke="#528cc1" d="M0 0V-29.217"/>
<path transform="matrix(1,0,0,-1,523.2,157.07999)" stroke-width=".96" stroke-linecap="butt" stroke-miterlimit="8" stroke-linejoin="miter" fill="none" stroke="#528cc1" d="M0 0V-19.91H107.435V-29.217"/>
<path transform="matrix(1,0,0,-1,569.28,436.08003)" stroke-width=".96" stroke-linecap="butt" stroke-miterlimit="8" stroke-linejoin="miter" fill="none" stroke="#528cc1" d="M0 0V-29.217"/>
<path transform="matrix(1,0,0,-1,507.84,343.08003)" stroke-width=".96" stroke-linecap="butt" stroke-miterlimit="8" stroke-linejoin="miter" fill="none" stroke="#528cc1" d="M0 0V-19.91H61.392V-29.217"/>
<path transform="matrix(1,0,0,-1,446.52,436.08003)" stroke-width=".96" stroke-linecap="butt" stroke-miterlimit="8" stroke-linejoin="miter" fill="none" stroke="#528cc1" d="M0 0V-29.217"/>
<path transform="matrix(1,0,0,-1,507.9116,343.08003)" stroke-width=".96" stroke-linecap="butt" stroke-miterlimit="8" stroke-linejoin="miter" fill="none" stroke="#528cc1" d="M0 0V-19.91H-61.392V-29.217"/>
<path transform="matrix(1,0,0,-1,415.8,250.07999)" stroke-width=".96" stroke-linecap="butt" stroke-miterlimit="8" stroke-linejoin="miter" fill="none" stroke="#528cc1" d="M0 0V-19.91H92.087V-29.217"/>
<path transform="matrix(1,0,0,-1,323.76,343.08003)" stroke-width=".96" stroke-linecap="butt" stroke-miterlimit="8" stroke-linejoin="miter" fill="none" stroke="#528cc1" d="M0 0V-29.217"/>
<path transform="matrix(1,0,0,-1,415.8473,250.07999)" stroke-width=".96" stroke-linecap="butt" stroke-miterlimit="8" stroke-linejoin="miter" fill="none" stroke="#528cc1" d="M0 0V-19.91H-92.087V-29.217"/>
<path transform="matrix(1,0,0,-1,523.2353,157.07999)" stroke-width=".96" stroke-linecap="butt" stroke-miterlimit="8" stroke-linejoin="miter" fill="none" stroke="#528cc1" d="M0 0V-19.91H-107.435V-29.217"/>
<path transform="matrix(1,0,0,-1,331.44,64.07999)" stroke-width=".96" stroke-linecap="butt" stroke-miterlimit="8" stroke-linejoin="miter" fill="none" stroke="#477ba9" d="M0 0V-19.91H191.849V-29.217"/>
<path transform="matrix(1,0,0,-1,200.88,250.07999)" stroke-width=".96" stroke-linecap="butt" stroke-miterlimit="8" stroke-linejoin="miter" fill="none" stroke="#528cc1" d="M0 0V-29.217"/>
<path transform="matrix(1,0,0,-1,139.56,157.07999)" stroke-width=".96" stroke-linecap="butt" stroke-miterlimit="8" stroke-linejoin="miter" fill="none" stroke="#528cc1" d="M0 0V-19.91H61.392V-29.217"/>
<path transform="matrix(1,0,0,-1,78.12,250.07999)" stroke-width=".96" stroke-linecap="butt" stroke-miterlimit="8" stroke-linejoin="miter" fill="none" stroke="#528cc1" d="M0 0V-29.217"/>
<path transform="matrix(1,0,0,-1,139.5116,157.07999)" stroke-width=".96" stroke-linecap="butt" stroke-miterlimit="8" stroke-linejoin="miter" fill="none" stroke="#528cc1" d="M0 0V-19.91H-61.392V-29.217"/>
<path transform="matrix(1,0,0,-1,331.4087,64.07999)" stroke-width=".96" stroke-linecap="butt" stroke-miterlimit="8" stroke-linejoin="miter" fill="none" stroke="#477ba9" d="M0 0V-19.91H-191.849V-29.217"/>
<g clip-path="url(#clip_80)">
<path transform="matrix(1,0,0,-1,193.8,6.6240236)" d="M0 0C0 3.526 2.858 6.384 6.384 6.384H268.776C272.302 6.384 275.16 3.526 275.16 0V-51.072C275.16-54.598 272.302-57.456 268.776-57.456H6.384C2.858-57.456 0-54.598 0-51.072Z" fill="#92d050" fill-rule="evenodd"/>
<path transform="matrix(1,0,0,-1,193.8,6.6240236)" stroke-width=".96" stroke-linecap="butt" stroke-miterlimit="8" stroke-linejoin="miter" fill="none" stroke="#ffffff" d="M0 0C0 3.526 2.858 6.384 6.384 6.384H268.776C272.302 6.384 275.16 3.526 275.16 0V-51.072C275.16-54.598 272.302-57.456 268.776-57.456H6.384C2.858-57.456 0-54.598 0-51.072Z"/>
</g>
<g clip-path="url(#clip_81)">
<path transform="matrix(1,0,0,-1,204.96,17.29187)" d="M0 0C0 3.519 2.853 6.372 6.372 6.372H268.788C272.307 6.372 275.16 3.519 275.16 0V-50.976C275.16-54.495 272.307-57.348 268.788-57.348H6.372C2.853-57.348 0-54.495 0-50.976Z" fill="#ffffff" fill-opacity=".901962" fill-rule="evenodd"/>
<path transform="matrix(1,0,0,-1,204.96,17.29187)" stroke-width=".96" stroke-linecap="butt" stroke-miterlimit="8" stroke-linejoin="miter" fill="none" stroke="#5b9bd5" d="M0 0C0 3.519 2.853 6.372 6.372 6.372H268.788C272.307 6.372 275.16 3.519 275.16 0V-50.976C275.16-54.495 272.307-57.348 268.788-57.348H6.372C2.853-57.348 0-54.495 0-50.976Z"/>
</g>
<text xml:space="preserve" transform="matrix(1 0 -0 1 0 540)" font-size="18" font-family="Calibri" font-weight="bold"><tspan y="-505.8438" x="314.9566 325.8826 337.7626 349.522 359.242">ANOVA</tspan></text>
<text xml:space="preserve" transform="matrix(1 0 -0 1 0 540)" font-size="18" font-family="Calibri"><tspan y="-478.48384" x="215.8306 224.5912 238.1506 243.3112 251.9512 259.9972 265.88319 275.362 285.6706 294.6706 298.7512 302.8318 311.8318 322.1566 336.55659 345.55659 355.87059 363.43058 372.91117 387.31117 396.79176 400.87239 409.63117 421.51658 431.00257 440.00257 447.07658 451.15718 459.67118">Enfaktorellermerkomplexdesign</tspan></text>
<g clip-path="url(#clip_82)">
<path transform="matrix(1,0,0,-1,89.28,99.624118)" d="M0 0C0 3.526 2.858 6.384 6.384 6.384H94.056C97.582 6.384 100.44 3.526 100.44 0V-51.072C100.44-54.598 97.582-57.456 94.056-57.456H6.384C2.858-57.456 0-54.598 0-51.072Z" fill="#5b9bd5" fill-rule="evenodd"/>
<path transform="matrix(1,0,0,-1,89.28,99.624118)" stroke-width=".96" stroke-linecap="butt" stroke-miterlimit="8" stroke-linejoin="miter" fill="none" stroke="#ffffff" d="M0 0C0 3.526 2.858 6.384 6.384 6.384H94.056C97.582 6.384 100.44 3.526 100.44 0V-51.072C100.44-54.598 97.582-57.456 94.056-57.456H6.384C2.858-57.456 0-54.598 0-51.072Z"/>
</g>
<g clip-path="url(#clip_83)">
<path transform="matrix(1,0,0,-1,100.44,110.29199)" d="M0 0C0 3.519 2.853 6.372 6.372 6.372H94.068C97.587 6.372 100.44 3.519 100.44 0V-50.976C100.44-54.495 97.587-57.348 94.068-57.348H6.372C2.853-57.348 0-54.495 0-50.976Z" fill="#ffffff" fill-opacity=".901962" fill-rule="evenodd"/>
<path transform="matrix(1,0,0,-1,100.44,110.29199)" stroke-width=".96" stroke-linecap="butt" stroke-miterlimit="8" stroke-linejoin="miter" fill="none" stroke="#5b9bd5" d="M0 0C0 3.519 2.853 6.372 6.372 6.372H94.068C97.587 6.372 100.44 3.519 100.44 0V-50.976C100.44-54.495 97.587-57.348 94.068-57.348H6.372C2.853-57.348 0-54.495 0-50.976Z"/>
</g>
<text xml:space="preserve" transform="matrix(1 0 -0 1 0 540)" font-size="11.04" font-family="Calibri"><tspan y="-401.133" x="130.2504 135.64896 143.92896 147.28511 152.56223 157.60309 161.32247 167.20236">Enfaktor</tspan></text>
<g clip-path="url(#clip_84)">
<path transform="matrix(1,0,0,-1,27.96,192.62412)" d="M0 0C0 3.526 2.858 6.384 6.384 6.384H94.056C97.582 6.384 100.44 3.526 100.44 0V-51.072C100.44-54.598 97.582-57.456 94.056-57.456H6.384C2.858-57.456 0-54.598 0-51.072Z" fill="#5b9bd5" fill-rule="evenodd"/>
<path transform="matrix(1,0,0,-1,27.96,192.62412)" stroke-width=".96" stroke-linecap="butt" stroke-miterlimit="8" stroke-linejoin="miter" fill="none" stroke="#ffffff" d="M0 0C0 3.526 2.858 6.384 6.384 6.384H94.056C97.582 6.384 100.44 3.526 100.44 0V-51.072C100.44-54.598 97.582-57.456 94.056-57.456H6.384C2.858-57.456 0-54.598 0-51.072Z"/>
</g>
<g clip-path="url(#clip_85)">
<path transform="matrix(1,0,0,-1,39.12,203.29199)" d="M0 0C0 3.519 2.853 6.372 6.372 6.372H94.068C97.587 6.372 100.44 3.519 100.44 0V-50.976C100.44-54.495 97.587-57.348 94.068-57.348H6.372C2.853-57.348 0-54.495 0-50.976Z" fill="#ffffff" fill-opacity=".901962" fill-rule="evenodd"/>
<path transform="matrix(1,0,0,-1,39.12,203.29199)" stroke-width=".96" stroke-linecap="butt" stroke-miterlimit="8" stroke-linejoin="miter" fill="none" stroke="#5b9bd5" d="M0 0C0 3.519 2.853 6.372 6.372 6.372H94.068C97.587 6.372 100.44 3.519 100.44 0V-50.976C100.44-54.495 97.587-57.348 94.068-57.348H6.372C2.853-57.348 0-54.495 0-50.976Z"/>
</g>
<text xml:space="preserve" transform="matrix(1 0 -0 1 0 540)" font-size="11.04" font-family="Calibri"><tspan y="-308.1248" x="53.6212 60.701154 66.581058 70.42297 79.302448 84.57957 87.09669 90.45285 96.33275 100.17467 105.934238 111.45423 113.97135 119.248477">Normalf&#x00f6;rdelad</tspan></text>
<g clip-path="url(#clip_86)">
<path transform="matrix(1,0,0,-1,27.96,285.7319)" d="M0 0C0 3.519 2.853 6.372 6.372 6.372H94.068C97.587 6.372 100.44 3.519 100.44 0V-50.976C100.44-54.495 97.587-57.348 94.068-57.348H6.372C2.853-57.348 0-54.495 0-50.976Z" fill="#ff0000" fill-rule="evenodd"/>
<path transform="matrix(1,0,0,-1,27.96,285.7319)" stroke-width=".96" stroke-linecap="butt" stroke-miterlimit="8" stroke-linejoin="miter" fill="none" stroke="#ffffff" d="M0 0C0 3.519 2.853 6.372 6.372 6.372H94.068C97.587 6.372 100.44 3.519 100.44 0V-50.976C100.44-54.495 97.587-57.348 94.068-57.348H6.372C2.853-57.348 0-54.495 0-50.976Z"/>
</g>
<g clip-path="url(#clip_87)">
<path transform="matrix(1,0,0,-1,39.12,296.30403)" d="M0 0C0 3.526 2.858 6.384 6.384 6.384H94.056C97.582 6.384 100.44 3.526 100.44 0V-51.072C100.44-54.598 97.582-57.456 94.056-57.456H6.384C2.858-57.456 0-54.598 0-51.072Z" fill="#ffffff" fill-opacity=".901962" fill-rule="evenodd"/>
<path transform="matrix(1,0,0,-1,39.12,296.30403)" stroke-width=".96" stroke-linecap="butt" stroke-miterlimit="8" stroke-linejoin="miter" fill="none" stroke="#5b9bd5" d="M0 0C0 3.526 2.858 6.384 6.384 6.384H94.056C97.582 6.384 100.44 3.526 100.44 0V-51.072C100.44-54.598 97.582-57.456 94.056-57.456H6.384C2.858-57.456 0-54.598 0-51.072Z"/>
</g>
<text xml:space="preserve" transform="matrix(1 0 -0 1 0 540)" font-size="11.04" font-family="Calibri"><tspan y="-223.509" x="55.4212 60.820867 66.58154 71.62131 76.90064 82.05632 86.37736 89.73352 96.093669 103.17362 110.49314 116.73074">Env&#x00e4;gs-ANOVA</tspan></text>
<text xml:space="preserve" transform="matrix(1 0 -0 1 0 540)" font-size="11.04" font-family="Calibri"><tspan y="-206.70612" x="56.49208 61.769205 67.6491 72.68776 76.04392 79.400089 81.685359 87.20535 89.72247 92.23959 97.7607 104.00824 106.52536 115.40483 118.76541">aov() ellerlm()</tspan></text>
<g clip-path="url(#clip_88)">
<path transform="matrix(1,0,0,-1,150.72,192.62412)" d="M0 0C0 3.526 2.858 6.384 6.384 6.384H94.056C97.582 6.384 100.44 3.526 100.44 0V-51.072C100.44-54.598 97.582-57.456 94.056-57.456H6.384C2.858-57.456 0-54.598 0-51.072Z" fill="#5b9bd5" fill-rule="evenodd"/>
<path transform="matrix(1,0,0,-1,150.72,192.62412)" stroke-width=".96" stroke-linecap="butt" stroke-miterlimit="8" stroke-linejoin="miter" fill="none" stroke="#ffffff" d="M0 0C0 3.526 2.858 6.384 6.384 6.384H94.056C97.582 6.384 100.44 3.526 100.44 0V-51.072C100.44-54.598 97.582-57.456 94.056-57.456H6.384C2.858-57.456 0-54.598 0-51.072Z"/>
</g>
<g clip-path="url(#clip_89)">
<path transform="matrix(1,0,0,-1,161.88,203.29199)" d="M0 0C0 3.519 2.853 6.372 6.372 6.372H94.068C97.587 6.372 100.44 3.519 100.44 0V-50.976C100.44-54.495 97.587-57.348 94.068-57.348H6.372C2.853-57.348 0-54.495 0-50.976Z" fill="#ffffff" fill-opacity=".901962" fill-rule="evenodd"/>
<path transform="matrix(1,0,0,-1,161.88,203.29199)" stroke-width=".96" stroke-linecap="butt" stroke-miterlimit="8" stroke-linejoin="miter" fill="none" stroke="#5b9bd5" d="M0 0C0 3.519 2.853 6.372 6.372 6.372H94.068C97.587 6.372 100.44 3.519 100.44 0V-50.976C100.44-54.495 97.587-57.348 94.068-57.348H6.372C2.853-57.348 0-54.495 0-50.976Z"/>
</g>
<text xml:space="preserve" transform="matrix(1 0 -0 1 0 540)" font-size="11.04" font-family="Calibri"><tspan y="-308.1248" x="174.3645 177.1245 181.80435 186.8441 192.3597 195.71585 201.47652 206.75363 210.59555 215.87267 224.75325 230.27326 233.99263 237.83455 240.35167 244.67163">Icke-parametrisk</tspan></text>
<g clip-path="url(#clip_90)">
<path transform="matrix(1,0,0,-1,150.72,285.7319)" d="M0 0C0 3.519 2.853 6.372 6.372 6.372H94.068C97.587 6.372 100.44 3.519 100.44 0V-50.976C100.44-54.495 97.587-57.348 94.068-57.348H6.372C2.853-57.348 0-54.495 0-50.976Z" fill="#ff0000" fill-rule="evenodd"/>
<path transform="matrix(1,0,0,-1,150.72,285.7319)" stroke-width=".96" stroke-linecap="butt" stroke-miterlimit="8" stroke-linejoin="miter" fill="none" stroke="#ffffff" d="M0 0C0 3.519 2.853 6.372 6.372 6.372H94.068C97.587 6.372 100.44 3.519 100.44 0V-50.976C100.44-54.495 97.587-57.348 94.068-57.348H6.372C2.853-57.348 0-54.495 0-50.976Z"/>
</g>
<g clip-path="url(#clip_91)">
<path transform="matrix(1,0,0,-1,161.88,296.30403)" d="M0 0C0 3.526 2.858 6.384 6.384 6.384H94.056C97.582 6.384 100.44 3.526 100.44 0V-51.072C100.44-54.598 97.582-57.456 94.056-57.456H6.384C2.858-57.456 0-54.598 0-51.072Z" fill="#ffffff" fill-opacity=".901962" fill-rule="evenodd"/>
<path transform="matrix(1,0,0,-1,161.88,296.30403)" stroke-width=".96" stroke-linecap="butt" stroke-miterlimit="8" stroke-linejoin="miter" fill="none" stroke="#5b9bd5" d="M0 0C0 3.526 2.858 6.384 6.384 6.384H94.056C97.582 6.384 100.44 3.526 100.44 0V-51.072C100.44-54.598 97.582-57.456 94.056-57.456H6.384C2.858-57.456 0-54.598 0-51.072Z"/>
</g>
<text xml:space="preserve" transform="matrix(1 0 -0 1 0 540)" font-size="11.04" font-family="Calibri"><tspan y="-223.509" x="170.8844 176.64508 180.487 186.24657 190.56653 195.60739 200.8845 203.40163 206.7644 216.60436 221.88147 224.39859 226.91571 229.43283 233.75279 236.03255 239.75304 245.27304 249.593">Kruskal-Wallis test</tspan></text>
<text xml:space="preserve" transform="matrix(1 0 -0 1 0 540)" font-size="11.04" font-family="Calibri"><tspan y="-206.70612" x="182.76345 187.80319 191.64402 197.40358 201.72353 206.76328 212.04372 214.56305 217.32305 221.04352 226.56352 230.88347 234.60395 237.9601">kruskal.test()</tspan></text>
<g clip-path="url(#clip_92)">
<path transform="matrix(1,0,0,-1,473.04,99.624118)" d="M0 0C0 3.526 2.858 6.384 6.384 6.384H94.056C97.582 6.384 100.44 3.526 100.44 0V-51.072C100.44-54.598 97.582-57.456 94.056-57.456H6.384C2.858-57.456 0-54.598 0-51.072Z" fill="#5b9bd5" fill-rule="evenodd"/>
<path transform="matrix(1,0,0,-1,473.04,99.624118)" stroke-width=".96" stroke-linecap="butt" stroke-miterlimit="8" stroke-linejoin="miter" fill="none" stroke="#ffffff" d="M0 0C0 3.526 2.858 6.384 6.384 6.384H94.056C97.582 6.384 100.44 3.526 100.44 0V-51.072C100.44-54.598 97.582-57.456 94.056-57.456H6.384C2.858-57.456 0-54.598 0-51.072Z"/>
</g>
<g clip-path="url(#clip_93)">
<path transform="matrix(1,0,0,-1,484.2,110.29199)" d="M0 0C0 3.519 2.853 6.372 6.372 6.372H94.068C97.587 6.372 100.44 3.519 100.44 0V-50.976C100.44-54.495 97.587-57.348 94.068-57.348H6.372C2.853-57.348 0-54.495 0-50.976Z" fill="#ffffff" fill-opacity=".901962" fill-rule="evenodd"/>
<path transform="matrix(1,0,0,-1,484.2,110.29199)" stroke-width=".96" stroke-linecap="butt" stroke-miterlimit="8" stroke-linejoin="miter" fill="none" stroke="#5b9bd5" d="M0 0C0 3.519 2.853 6.372 6.372 6.372H94.068C97.587 6.372 100.44 3.519 100.44 0V-50.976C100.44-54.495 97.587-57.348 94.068-57.348H6.372C2.853-57.348 0-54.495 0-50.976Z"/>
</g>
<text xml:space="preserve" transform="matrix(1 0 -0 1 0 540)" font-size="11.04" font-family="Calibri"><tspan y="-401.133" x="499.1877 504.9506 510.83049 519.71109 525.4706 527.991 533.51107 540.46627 546.2258 551.7458 556.06576 558.5862 563.7419">Komplexdesign</tspan></text>
<g clip-path="url(#clip_94)">
<path transform="matrix(1,0,0,-1,365.64,192.62412)" d="M0 0C0 3.526 2.858 6.384 6.384 6.384H94.056C97.582 6.384 100.44 3.526 100.44 0V-51.072C100.44-54.598 97.582-57.456 94.056-57.456H6.384C2.858-57.456 0-54.598 0-51.072Z" fill="#5b9bd5" fill-rule="evenodd"/>
<path transform="matrix(1,0,0,-1,365.64,192.62412)" stroke-width=".96" stroke-linecap="butt" stroke-miterlimit="8" stroke-linejoin="miter" fill="none" stroke="#ffffff" d="M0 0C0 3.526 2.858 6.384 6.384 6.384H94.056C97.582 6.384 100.44 3.526 100.44 0V-51.072C100.44-54.598 97.582-57.456 94.056-57.456H6.384C2.858-57.456 0-54.598 0-51.072Z"/>
</g>
<g clip-path="url(#clip_95)">
<path transform="matrix(1,0,0,-1,376.8,203.29199)" d="M0 0C0 3.519 2.853 6.372 6.372 6.372H94.068C97.587 6.372 100.44 3.519 100.44 0V-50.976C100.44-54.495 97.587-57.348 94.068-57.348H6.372C2.853-57.348 0-54.495 0-50.976Z" fill="#ffffff" fill-opacity=".901962" fill-rule="evenodd"/>
<path transform="matrix(1,0,0,-1,376.8,203.29199)" stroke-width=".96" stroke-linecap="butt" stroke-miterlimit="8" stroke-linejoin="miter" fill="none" stroke="#5b9bd5" d="M0 0C0 3.519 2.853 6.372 6.372 6.372H94.068C97.587 6.372 100.44 3.519 100.44 0V-50.976C100.44-54.495 97.587-57.348 94.068-57.348H6.372C2.853-57.348 0-54.495 0-50.976Z"/>
</g>
<text xml:space="preserve" transform="matrix(1 0 -0 1 0 540)" font-size="11.04" font-family="Calibri"><tspan y="-308.1248" x="399.6725 405.07106 410.11079 417.78913 421.1453 426.42243 431.4633 435.18266 441.06257 444.90449 450.42448">Tv&#x00e5;faktorer</tspan></text>
<g clip-path="url(#clip_96)">
<path transform="matrix(1,0,0,-1,273.48,285.7319)" d="M0 0C0 3.519 2.853 6.372 6.372 6.372H94.068C97.587 6.372 100.44 3.519 100.44 0V-50.976C100.44-54.495 97.587-57.348 94.068-57.348H6.372C2.853-57.348 0-54.495 0-50.976Z" fill="#5b9bd5" fill-rule="evenodd"/>
<path transform="matrix(1,0,0,-1,273.48,285.7319)" stroke-width=".96" stroke-linecap="butt" stroke-miterlimit="8" stroke-linejoin="miter" fill="none" stroke="#ffffff" d="M0 0C0 3.519 2.853 6.372 6.372 6.372H94.068C97.587 6.372 100.44 3.519 100.44 0V-50.976C100.44-54.495 97.587-57.348 94.068-57.348H6.372C2.853-57.348 0-54.495 0-50.976Z"/>
</g>
<g clip-path="url(#clip_97)">
<path transform="matrix(1,0,0,-1,284.64,296.30403)" d="M0 0C0 3.526 2.858 6.384 6.384 6.384H94.056C97.582 6.384 100.44 3.526 100.44 0V-51.072C100.44-54.598 97.582-57.456 94.056-57.456H6.384C2.858-57.456 0-54.598 0-51.072Z" fill="#ffffff" fill-opacity=".901962" fill-rule="evenodd"/>
<path transform="matrix(1,0,0,-1,284.64,296.30403)" stroke-width=".96" stroke-linecap="butt" stroke-miterlimit="8" stroke-linejoin="miter" fill="none" stroke="#5b9bd5" d="M0 0C0 3.526 2.858 6.384 6.384 6.384H94.056C97.582 6.384 100.44 3.526 100.44 0V-51.072C100.44-54.598 97.582-57.456 94.056-57.456H6.384C2.858-57.456 0-54.598 0-51.072Z"/>
</g>
<text xml:space="preserve" transform="matrix(1 0 -0 1 0 540)" font-size="11.04" font-family="Calibri"><tspan y="-227.2015" x="304.2276 310.22785 315.50718 321.26783 329.0676 332.42378 337.7009 342.74177 346.46113 352.34104 356.18296 361.70295">B&#x00e5;dafaktorer</tspan><tspan y="-215.07959" x="310.1119 315.99183 321.75138 327.2714 331.1122 336.99214 342.51216 348.2717 354.03126">oberoende</tspan><tspan y="-202.95767" x="311.78999 320.67054 325.94767 329.66813 335.4277 337.94483 343.7044 348.8645 354.14164">m&#x00e4;tningar</tspan></text>
<g clip-path="url(#clip_98)">
<path transform="matrix(1,0,0,-1,273.48,378.7319)" d="M0 0C0 3.519 2.853 6.372 6.372 6.372H94.068C97.587 6.372 100.44 3.519 100.44 0V-50.976C100.44-54.495 97.587-57.348 94.068-57.348H6.372C2.853-57.348 0-54.495 0-50.976Z" fill="#ff0000" fill-rule="evenodd"/>
<path transform="matrix(1,0,0,-1,273.48,378.7319)" stroke-width=".96" stroke-linecap="butt" stroke-miterlimit="8" stroke-linejoin="miter" fill="none" stroke="#ffffff" d="M0 0C0 3.519 2.853 6.372 6.372 6.372H94.068C97.587 6.372 100.44 3.519 100.44 0V-50.976C100.44-54.495 97.587-57.348 94.068-57.348H6.372C2.853-57.348 0-54.495 0-50.976Z"/>
</g>
<g clip-path="url(#clip_99)">
<path transform="matrix(1,0,0,-1,284.64,389.30403)" d="M0 0C0 3.526 2.858 6.384 6.384 6.384H94.056C97.582 6.384 100.44 3.526 100.44 0V-51.072C100.44-54.598 97.582-57.456 94.056-57.456H6.384C2.858-57.456 0-54.598 0-51.072Z" fill="#ffffff" fill-opacity=".901962" fill-rule="evenodd"/>
<path transform="matrix(1,0,0,-1,284.64,389.30403)" stroke-width=".96" stroke-linecap="butt" stroke-miterlimit="8" stroke-linejoin="miter" fill="none" stroke="#5b9bd5" d="M0 0C0 3.526 2.858 6.384 6.384 6.384H94.056C97.582 6.384 100.44 3.526 100.44 0V-51.072C100.44-54.598 97.582-57.456 94.056-57.456H6.384C2.858-57.456 0-54.598 0-51.072Z"/>
</g>
<text xml:space="preserve" transform="matrix(1 0 -0 1 0 540)" font-size="11.04" font-family="Calibri"><tspan y="-130.5007" x="298.7076 304.10728 309.14814 314.42527 319.46614 324.74327 329.90336 334.2233 337.57948 343.9396 351.01957 358.33909 364.5767">Tv&#x00e5;v&#x00e4;gs-ANOVA</tspan></text>
<text xml:space="preserve" transform="matrix(1 0 -0 1 0 540)" font-size="11.04" font-family="Calibri"><tspan y="-113.69782" x="302.06379 307.3409 313.22084 318.25947 321.61564 324.9718 327.25706 332.77705 335.29417 337.81129 343.33128 349.57994 352.09706 360.9765 364.33708">aov() ellerlm()</tspan></text>
<g clip-path="url(#clip_100)">
<path transform="matrix(1,0,0,-1,457.68,285.7319)" d="M0 0C0 3.519 2.853 6.372 6.372 6.372H94.068C97.587 6.372 100.44 3.519 100.44 0V-50.976C100.44-54.495 97.587-57.348 94.068-57.348H6.372C2.853-57.348 0-54.495 0-50.976Z" fill="#5b9bd5" fill-rule="evenodd"/>
<path transform="matrix(1,0,0,-1,457.68,285.7319)" stroke-width=".96" stroke-linecap="butt" stroke-miterlimit="8" stroke-linejoin="miter" fill="none" stroke="#ffffff" d="M0 0C0 3.519 2.853 6.372 6.372 6.372H94.068C97.587 6.372 100.44 3.519 100.44 0V-50.976C100.44-54.495 97.587-57.348 94.068-57.348H6.372C2.853-57.348 0-54.495 0-50.976Z"/>
</g>
<g clip-path="url(#clip_101)">
<path transform="matrix(1,0,0,-1,468.84,296.30403)" d="M0 0C0 3.526 2.858 6.384 6.384 6.384H94.056C97.582 6.384 100.44 3.526 100.44 0V-51.072C100.44-54.598 97.582-57.456 94.056-57.456H6.384C2.858-57.456 0-54.598 0-51.072Z" fill="#ffffff" fill-opacity=".901962" fill-rule="evenodd"/>
<path transform="matrix(1,0,0,-1,468.84,296.30403)" stroke-width=".96" stroke-linecap="butt" stroke-miterlimit="8" stroke-linejoin="miter" fill="none" stroke="#5b9bd5" d="M0 0C0 3.526 2.858 6.384 6.384 6.384H94.056C97.582 6.384 100.44 3.526 100.44 0V-51.072C100.44-54.598 97.582-57.456 94.056-57.456H6.384C2.858-57.456 0-54.598 0-51.072Z"/>
</g>
<text xml:space="preserve" transform="matrix(1 0 -0 1 0 540)" font-size="11.04" font-family="Calibri"><tspan y="-227.2015" x="487.4424 492.84098 501.12098 504.47715 509.75428 514.7951 518.5145 524.3945 530.5205 539.39999 544.9199 550.6806">Enfaktormed </tspan><tspan y="-215.07959" x="497.27906 503.0386 508.55863 512.3995 518.27938 523.7993 529.5589 535.3185">beroende</tspan><tspan y="-202.95767" x="495.95426 504.8348 510.11195 513.83248 519.59207 522.10916 527.8687 533.0288 538.3059">m&#x00e4;tningar</tspan></text>
<g clip-path="url(#clip_102)">
<path transform="matrix(1,0,0,-1,396.24,378.7319)" d="M0 0C0 3.519 2.853 6.372 6.372 6.372H94.068C97.587 6.372 100.44 3.519 100.44 0V-50.976C100.44-54.495 97.587-57.348 94.068-57.348H6.372C2.853-57.348 0-54.495 0-50.976Z" fill="#5b9bd5" fill-rule="evenodd"/>
<path transform="matrix(1,0,0,-1,396.24,378.7319)" stroke-width=".96" stroke-linecap="butt" stroke-miterlimit="8" stroke-linejoin="miter" fill="none" stroke="#ffffff" d="M0 0C0 3.519 2.853 6.372 6.372 6.372H94.068C97.587 6.372 100.44 3.519 100.44 0V-50.976C100.44-54.495 97.587-57.348 94.068-57.348H6.372C2.853-57.348 0-54.495 0-50.976Z"/>
</g>
<g clip-path="url(#clip_103)">
<path transform="matrix(1,0,0,-1,407.4,389.30403)" d="M0 0C0 3.526 2.858 6.384 6.384 6.384H94.056C97.582 6.384 100.44 3.526 100.44 0V-51.072C100.44-54.598 97.582-57.456 94.056-57.456H6.384C2.858-57.456 0-54.598 0-51.072Z" fill="#ffffff" fill-opacity=".901962" fill-rule="evenodd"/>
<path transform="matrix(1,0,0,-1,407.4,389.30403)" stroke-width=".96" stroke-linecap="butt" stroke-miterlimit="8" stroke-linejoin="miter" fill="none" stroke="#5b9bd5" d="M0 0C0 3.526 2.858 6.384 6.384 6.384H94.056C97.582 6.384 100.44 3.526 100.44 0V-51.072C100.44-54.598 97.582-57.456 94.056-57.456H6.384C2.858-57.456 0-54.598 0-51.072Z"/>
</g>
<text xml:space="preserve" transform="matrix(1 0 -0 1 0 540)" font-size="11.04" font-family="Calibri"><tspan y="-122.1083" x="422.9283 430.00825 435.88816 439.73008 448.60954 453.88667 456.40379 459.75996 465.63987 469.48179 475.24137 480.76136 483.27848 488.5556">Normalf&#x00f6;rdelat</tspan></text>
<g clip-path="url(#clip_104)">
<path transform="matrix(1,0,0,-1,396.24,471.732)" d="M0 0C0 3.519 2.853 6.372 6.372 6.372H94.068C97.587 6.372 100.44 3.519 100.44 0V-50.976C100.44-54.495 97.587-57.348 94.068-57.348H6.372C2.853-57.348 0-54.495 0-50.976Z" fill-rule="evenodd"/>
<path transform="matrix(1,0,0,-1,396.24,471.732)" stroke-width=".96" stroke-linecap="butt" stroke-miterlimit="8" stroke-linejoin="miter" fill="none" stroke="#ffffff" d="M0 0C0 3.519 2.853 6.372 6.372 6.372H94.068C97.587 6.372 100.44 3.519 100.44 0V-50.976C100.44-54.495 97.587-57.348 94.068-57.348H6.372C2.853-57.348 0-54.495 0-50.976Z"/>
</g>
<g clip-path="url(#clip_105)">
<path transform="matrix(1,0,0,-1,407.4,482.30403)" d="M0 0C0 3.526 2.858 6.384 6.384 6.384H94.056C97.582 6.384 100.44 3.526 100.44 0V-51.072C100.44-54.598 97.582-57.456 94.056-57.456H6.384C2.858-57.456 0-54.598 0-51.072Z" fill="#ffffff" fill-opacity=".901962" fill-rule="evenodd"/>
<path transform="matrix(1,0,0,-1,407.4,482.30403)" stroke-width=".96" stroke-linecap="butt" stroke-miterlimit="8" stroke-linejoin="miter" fill="none" stroke="#5b9bd5" d="M0 0C0 3.526 2.858 6.384 6.384 6.384H94.056C97.582 6.384 100.44 3.526 100.44 0V-51.072C100.44-54.598 97.582-57.456 94.056-57.456H6.384C2.858-57.456 0-54.598 0-51.072Z"/>
</g>
<text xml:space="preserve" transform="matrix(1 0 -0 1 0 540)" font-size="11.04" font-family="Calibri"><tspan y="-49.5775" x="412.7308 418.73106 424.25105 430.01063 435.5306 440.81105 444.53153 450.0515 455.8089 459.16508 468.04563 473.5656 478.84275 483.1627 488.92338 492.7653 498.28529 502.60523">Repeated-measures </tspan><tspan y="-37.455579" x="418.48268 424.36259 430.12214 435.63883 438.995 446.9151 452.19224 457.23307 460.58924 466.94938 474.02934 481.34886 487.58647 493.9455 496.7055">one-way-ANOVA, </tspan><tspan y="-25.333657" x="431.1897 436.94926 439.4697 445.3496 450.02949 455.06925 460.8299 466.3499 470.6699 473.18925 478.3449">blockdesign</tspan></text>
<text xml:space="preserve" transform="matrix(1 0 -0 1 0 540)" font-size="11.04" font-family="Calibri"><tspan y="-8.652216" x="448.58876 451.10588 459.98533 463.3459">lm()</tspan></text>
<g clip-path="url(#clip_106)">
<path transform="matrix(1,0,0,-1,519.12,378.7319)" d="M0 0C0 3.519 2.853 6.372 6.372 6.372H94.068C97.587 6.372 100.44 3.519 100.44 0V-50.976C100.44-54.495 97.587-57.348 94.068-57.348H6.372C2.853-57.348 0-54.495 0-50.976Z" fill="#5b9bd5" fill-rule="evenodd"/>
<path transform="matrix(1,0,0,-1,519.12,378.7319)" stroke-width=".96" stroke-linecap="butt" stroke-miterlimit="8" stroke-linejoin="miter" fill="none" stroke="#ffffff" d="M0 0C0 3.519 2.853 6.372 6.372 6.372H94.068C97.587 6.372 100.44 3.519 100.44 0V-50.976C100.44-54.495 97.587-57.348 94.068-57.348H6.372C2.853-57.348 0-54.495 0-50.976Z"/>
</g>
<g clip-path="url(#clip_107)">
<path transform="matrix(1,0,0,-1,530.28,389.30403)" d="M0 0C0 3.526 2.858 6.384 6.384 6.384H94.056C97.582 6.384 100.44 3.526 100.44 0V-51.072C100.44-54.598 97.582-57.456 94.056-57.456H6.384C2.858-57.456 0-54.598 0-51.072Z" fill="#ffffff" fill-opacity=".901962" fill-rule="evenodd"/>
<path transform="matrix(1,0,0,-1,530.28,389.30403)" stroke-width=".96" stroke-linecap="butt" stroke-miterlimit="8" stroke-linejoin="miter" fill="none" stroke="#5b9bd5" d="M0 0C0 3.526 2.858 6.384 6.384 6.384H94.056C97.582 6.384 100.44 3.526 100.44 0V-51.072C100.44-54.598 97.582-57.456 94.056-57.456H6.384C2.858-57.456 0-54.598 0-51.072Z"/>
</g>
<text xml:space="preserve" transform="matrix(1 0 -0 1 0 540)" font-size="11.04" font-family="Calibri"><tspan y="-122.1083" x="540.9115 543.6715 548.3514 553.3911 558.9067 562.2628 568.0235 573.3006 577.1425 582.4196 591.30026 596.82028 600.5408 604.3827 606.8998 611.2208 616.26058">Icke-parametriskt</tspan></text>
<g clip-path="url(#clip_108)">
<path transform="matrix(1,0,0,-1,519.12,471.732)" d="M0 0C0 3.519 2.853 6.372 6.372 6.372H94.068C97.587 6.372 100.44 3.519 100.44 0V-50.976C100.44-54.495 97.587-57.348 94.068-57.348H6.372C2.853-57.348 0-54.495 0-50.976Z" fill-rule="evenodd"/>
<path transform="matrix(1,0,0,-1,519.12,471.732)" stroke-width=".96" stroke-linecap="butt" stroke-miterlimit="8" stroke-linejoin="miter" fill="none" stroke="#ffffff" d="M0 0C0 3.519 2.853 6.372 6.372 6.372H94.068C97.587 6.372 100.44 3.519 100.44 0V-50.976C100.44-54.495 97.587-57.348 94.068-57.348H6.372C2.853-57.348 0-54.495 0-50.976Z"/>
</g>
<g clip-path="url(#clip_109)">
<path transform="matrix(1,0,0,-1,530.28,482.30403)" d="M0 0C0 3.526 2.858 6.384 6.384 6.384H94.056C97.582 6.384 100.44 3.526 100.44 0V-51.072C100.44-54.598 97.582-57.456 94.056-57.456H6.384C2.858-57.456 0-54.598 0-51.072Z" fill="#ffffff" fill-opacity=".901962" fill-rule="evenodd"/>
<path transform="matrix(1,0,0,-1,530.28,482.30403)" stroke-width=".96" stroke-linecap="butt" stroke-miterlimit="8" stroke-linejoin="miter" fill="none" stroke="#5b9bd5" d="M0 0C0 3.526 2.858 6.384 6.384 6.384H94.056C97.582 6.384 100.44 3.526 100.44 0V-51.072C100.44-54.598 97.582-57.456 94.056-57.456H6.384C2.858-57.456 0-54.598 0-51.072Z"/>
</g>
<text xml:space="preserve" transform="matrix(1 0 -0 1 0 540)" font-size="11.04" font-family="Calibri"><tspan y="-37.4925" x="549.314 554.3538 558.19577 560.7128 566.23287 571.9935 580.87307 586.15017 591.9108 594.3065 598.02597 603.54598 607.8659">Friedman test</tspan></text>
<text xml:space="preserve" transform="matrix(1 0 -0 1 0 540)" font-size="11.04" font-family="Calibri"><tspan y="-20.689621" x="546.554 549.91018 553.7521 556.26919 561.7892 567.54879 576.4294 581.7065 587.46719 590.2272 593.9477 599.4677 603.78768 607.5169 610.87307">friedman.test()</tspan></text>
<g clip-path="url(#clip_110)">
<path transform="matrix(1,0,0,-1,580.44,192.62412)" d="M0 0C0 3.526 2.858 6.384 6.384 6.384H94.056C97.582 6.384 100.44 3.526 100.44 0V-51.072C100.44-54.598 97.582-57.456 94.056-57.456H6.384C2.858-57.456 0-54.598 0-51.072Z" fill="#5b9bd5" fill-rule="evenodd"/>
<path transform="matrix(1,0,0,-1,580.44,192.62412)" stroke-width=".96" stroke-linecap="butt" stroke-miterlimit="8" stroke-linejoin="miter" fill="none" stroke="#ffffff" d="M0 0C0 3.526 2.858 6.384 6.384 6.384H94.056C97.582 6.384 100.44 3.526 100.44 0V-51.072C100.44-54.598 97.582-57.456 94.056-57.456H6.384C2.858-57.456 0-54.598 0-51.072Z"/>
</g>
<g clip-path="url(#clip_111)">
<path transform="matrix(1,0,0,-1,591.6,203.29199)" d="M0 0C0 3.519 2.853 6.372 6.372 6.372H94.068C97.587 6.372 100.44 3.519 100.44 0V-50.976C100.44-54.495 97.587-57.348 94.068-57.348H6.372C2.853-57.348 0-54.495 0-50.976Z" fill="#ffffff" fill-opacity=".901962" fill-rule="evenodd"/>
<path transform="matrix(1,0,0,-1,591.6,203.29199)" stroke-width=".96" stroke-linecap="butt" stroke-miterlimit="8" stroke-linejoin="miter" fill="none" stroke="#5b9bd5" d="M0 0C0 3.519 2.853 6.372 6.372 6.372H94.068C97.587 6.372 100.44 3.519 100.44 0V-50.976C100.44-54.495 97.587-57.348 94.068-57.348H6.372C2.853-57.348 0-54.495 0-50.976Z"/>
</g>
<text xml:space="preserve" transform="matrix(1 0 -0 1 0 540)" font-size="11.04" font-family="Calibri"><tspan y="-314.1673" x="605.3056 610.70419 618.9842 622.34036 627.61746 632.65829 636.3777 642.2576 648.3837 654.2636 658.9434 664.703 667.10757 672.62759">Enfaktoroch en</tspan><tspan y="-302.04539" x="623.908 628.9478 634.2249 638.06686 640.5839 645.861 651.6206 657.1406">variabel</tspan></text>
<g clip-path="url(#clip_112)">
<path transform="matrix(1,0,0,-1,580.44,285.7319)" d="M0 0C0 3.519 2.853 6.372 6.372 6.372H94.068C97.587 6.372 100.44 3.519 100.44 0V-50.976C100.44-54.495 97.587-57.348 94.068-57.348H6.372C2.853-57.348 0-54.495 0-50.976Z" fill-rule="evenodd"/>
<path transform="matrix(1,0,0,-1,580.44,285.7319)" stroke-width=".96" stroke-linecap="butt" stroke-miterlimit="8" stroke-linejoin="miter" fill="none" stroke="#ffffff" d="M0 0C0 3.519 2.853 6.372 6.372 6.372H94.068C97.587 6.372 100.44 3.519 100.44 0V-50.976C100.44-54.495 97.587-57.348 94.068-57.348H6.372C2.853-57.348 0-54.495 0-50.976Z"/>
</g>
<g clip-path="url(#clip_113)">
<path transform="matrix(1,0,0,-1,591.6,296.30403)" d="M0 0C0 3.526 2.858 6.384 6.384 6.384H94.056C97.582 6.384 100.44 3.526 100.44 0V-51.072C100.44-54.598 97.582-57.456 94.056-57.456H6.384C2.858-57.456 0-54.598 0-51.072Z" fill="#ffffff" fill-opacity=".901962" fill-rule="evenodd"/>
<path transform="matrix(1,0,0,-1,591.6,296.30403)" stroke-width=".96" stroke-linecap="butt" stroke-miterlimit="8" stroke-linejoin="miter" fill="none" stroke="#5b9bd5" d="M0 0C0 3.526 2.858 6.384 6.384 6.384H94.056C97.582 6.384 100.44 3.526 100.44 0V-51.072C100.44-54.598 97.582-57.456 94.056-57.456H6.384C2.858-57.456 0-54.598 0-51.072Z"/>
</g>
<text xml:space="preserve" transform="matrix(1 0 -0 1 0 540)" font-size="11.04" font-family="Calibri"><tspan y="-223.509" x="622.2231 628.5832 635.66317 641.543 648.86257 655.10018">ANCOVA</tspan></text>
<text xml:space="preserve" transform="matrix(1 0 -0 1 0 540)" font-size="11.04" font-family="Calibri"><tspan y="-206.70612" x="632.7884 635.3055 644.185 647.5456">lm()</tspan></text>
</g>
</svg>
